G04 DipTrace 2.1.9.5*
%INBottom.gbr*%
%MOIN*%
%ADD13C,0.013*%
%ADD14C,0.022*%
%ADD15C,0.025*%
%ADD23C,0.17*%
%ADD24C,0.0591*%
%ADD25R,0.0591X0.0591*%
%ADD30C,0.04*%
%FSLAX44Y44*%
%SFA1B1*%
%OFA0B0*%
G04*
G70*
G90*
G75*
G01*
%LNBottom*%
%LPD*%
X23315Y14315D2*
D13*
X22814Y14816D1*
X18564D1*
X18439Y14691D1*
X14564D1*
X14002Y14128D1*
Y12566D1*
X13939Y12503D1*
X13314D1*
X13189Y12628D1*
X11752D1*
X11564Y12441D1*
X14829Y15590D2*
D14*
X15417Y15003D1*
X17940D1*
X19065Y16128D1*
X20990D1*
X23502D1*
X24315Y15315D1*
X12440Y5440D2*
Y6440D1*
Y6630D1*
X12877Y7066D1*
X21688D1*
X22126Y7504D1*
Y7879D1*
X13002Y8566D2*
D13*
X13064Y8504D1*
X11817Y11001D2*
X11877Y10941D1*
X18064Y8566D2*
X15001D1*
X13814Y7379D1*
X12689D1*
X11939Y6629D1*
Y4629D1*
X11627Y4317D1*
X8690D1*
X8440Y4567D1*
Y5440D1*
X18626Y8566D2*
X18251Y8941D1*
X17814D1*
X17689Y8816D1*
X14877D1*
X13689Y7629D1*
X11939D1*
X10939Y6629D1*
Y4879D1*
X10627Y4567D1*
X9127D1*
X8940Y4754D1*
Y5940D1*
X8440Y6440D1*
X5315Y16190D2*
X4753Y15628D1*
Y11566D1*
X4503Y11316D1*
Y9004D1*
X7066Y6440D1*
X8440D1*
X6315Y16190D2*
X5815Y15690D1*
Y10566D1*
X6190Y10191D1*
Y8629D1*
X6440Y8379D1*
X19001Y8941D2*
X18751Y9191D1*
X17626D1*
X17501Y9066D1*
X14752D1*
X13564Y7879D1*
X11814D1*
X10877Y6941D1*
X10127D1*
X9940Y6754D1*
Y5940D1*
X9440Y5440D1*
X19314Y9629D2*
X17689D1*
X17376Y9316D1*
X14627D1*
X13439Y8129D1*
X11689D1*
X10752Y7191D1*
X10002D1*
X9440Y6629D1*
Y6440D1*
X8691Y7504D2*
X9879Y8691D1*
X10439D1*
X11814Y10066D1*
X15626D1*
X15814Y10254D1*
X15251Y10441D2*
X15126Y10316D1*
X11689D1*
X10314Y8941D1*
X9565D1*
X5316Y10691D2*
X5315Y10690D1*
X5940Y10065D1*
Y8316D1*
X7002Y7254D1*
X7877D1*
X9565Y8941D1*
X19001Y11441D2*
X18876Y11316D1*
Y10316D1*
X18689Y10129D1*
X17439D1*
X17126Y9816D1*
X11939D1*
X10564Y8441D1*
X10066D1*
X9940Y8315D1*
Y7628D1*
X9315Y7004D1*
X6877D1*
X4753Y9129D1*
Y11128D1*
X5315Y11690D1*
X19314Y11003D2*
Y10379D1*
X18814Y9879D1*
X17564D1*
X17251Y9566D1*
X12066D1*
X10690Y8190D1*
X10315D1*
Y8004D1*
X10377Y8067D1*
X15127Y8128D2*
X20440D1*
X13002Y12253D2*
X14002D1*
X14252Y12503D1*
Y14003D1*
X14689Y14441D1*
X18439D1*
X19126Y13753D1*
X23001D1*
X23501Y13253D1*
Y9379D1*
X23313Y9191D1*
X21001D1*
X20876Y9316D1*
X19815Y8878D2*
X22502D1*
X23063Y8316D1*
Y5754D1*
X22687Y5378D1*
X22502D1*
X22440Y5440D1*
X19440Y8503D2*
X22377D1*
X22751Y8129D1*
Y6751D1*
X22440Y6440D1*
X23315Y15315D2*
X23813Y14817D1*
Y7941D1*
X23563Y7691D1*
Y4942D1*
X23438Y4817D1*
X20063D1*
X19440Y5440D1*
X8940Y16190D2*
X11377Y18628D1*
X18689D1*
X19126Y18190D1*
X21438D1*
X14440Y5440D2*
D14*
Y4940D1*
X14940Y4440D1*
X23752D1*
X23940Y4628D1*
Y7315D1*
X13558Y12948D2*
D13*
X13495D1*
X10752Y15690D1*
X7565D1*
D30*
X11564Y12441D3*
X20990Y16128D3*
X22126Y7879D3*
X13002Y8566D3*
X11817Y11001D3*
X18064Y8566D3*
X18626D3*
X6440Y8379D3*
X19001Y8941D3*
X19314Y9629D3*
X8691Y7504D3*
X15814Y10254D3*
X15251Y10441D3*
X9565Y8941D3*
X19001Y11441D3*
X9940Y7628D3*
X19314Y11003D3*
X10377Y8067D3*
X15127Y8128D3*
X20440D3*
X13002Y12253D3*
X20876Y9316D3*
X19815Y8878D3*
X19440Y8503D3*
X8940Y16190D3*
X21438Y18190D3*
X23940Y7315D3*
X13558Y12948D3*
X7565Y15690D3*
X9065Y19003D3*
X8877Y17565D3*
X13940Y19940D3*
X15940D3*
X14440Y17940D3*
X15940D3*
X19440Y17440D3*
X20940D3*
X23440D3*
X24440Y16440D3*
X24940Y18440D3*
X25940D3*
Y17440D3*
X25440Y14940D3*
X24940Y7940D3*
X18065Y7565D3*
X18690D3*
X19315D3*
X14690D3*
X7440Y7690D3*
X4565Y8190D3*
Y7065D3*
X5190Y7440D3*
X10440Y14315D3*
Y13315D3*
X9815Y15315D3*
X10315Y16565D3*
X12565Y14815D3*
X11440Y11565D3*
X14565Y11690D3*
Y10815D3*
X17815Y12690D3*
X18565Y12190D3*
X18190Y19815D3*
X19315D3*
X7065Y21190D3*
X7940D3*
X8815D3*
X9690D3*
X10565D3*
X11565D3*
X7065Y20190D3*
Y19190D3*
X5940Y18690D3*
X4690D3*
X11565Y20190D3*
X18190Y16190D3*
X20815Y12690D3*
X23065Y11440D3*
X22690Y10940D3*
X24315Y13065D3*
X21440Y7690D3*
X13315Y13940D3*
X24565Y11065D3*
X24440Y9440D3*
X10814Y7754D3*
X7627Y5440D3*
X7877Y11503D3*
X8690D3*
X10627Y9941D3*
X6539Y21181D2*
D15*
X24341D1*
X6676Y20933D2*
X24204D1*
X6746Y20684D2*
X24130D1*
X6770Y20435D2*
X21989D1*
X23141D2*
X24111D1*
X6746Y20187D2*
X21989D1*
X23141D2*
X24134D1*
X6672Y19938D2*
X21989D1*
X23141D2*
X24208D1*
X6536Y19689D2*
X21989D1*
X23141D2*
X24345D1*
X4350Y19440D2*
X4575D1*
X6305D2*
X22138D1*
X22993D2*
X24575D1*
X26305D2*
X26406D1*
X4350Y19192D2*
X5029D1*
X5848D2*
X22005D1*
X23125D2*
X25029D1*
X25848D2*
X26404D1*
X4350Y18943D2*
X11298D1*
X18766D2*
X22005D1*
X23125D2*
X26404D1*
X4350Y18694D2*
X10966D1*
X19098D2*
X22134D1*
X22996D2*
X26404D1*
X4350Y18446D2*
X10716D1*
X21840D2*
X26404D1*
X4350Y18197D2*
X10470D1*
X11422D2*
X18642D1*
X21918D2*
X26404D1*
X4350Y17948D2*
X10220D1*
X11176D2*
X18892D1*
X21848D2*
X26404D1*
X4350Y17700D2*
X4739D1*
X5891D2*
X6083D1*
X6547D2*
X9970D1*
X10926D2*
X26404D1*
X4350Y17451D2*
X4739D1*
X6825D2*
X9724D1*
X10676D2*
X26404D1*
X4350Y17202D2*
X4739D1*
X6891D2*
X9474D1*
X10430D2*
X26404D1*
X4350Y16954D2*
X4739D1*
X6836D2*
X9224D1*
X10180D2*
X26404D1*
X4350Y16705D2*
X4739D1*
X6598D2*
X8978D1*
X9930D2*
X15349D1*
X16270D2*
X26404D1*
X4350Y16456D2*
X4810D1*
X6821D2*
X8544D1*
X9684D2*
X15239D1*
X16375D2*
X18880D1*
X23684D2*
X26404D1*
X4350Y16208D2*
X4739D1*
X6891D2*
X8458D1*
X9434D2*
X15259D1*
X16360D2*
X18603D1*
X23965D2*
X26404D1*
X4350Y15959D2*
X4607D1*
X6840D2*
X7173D1*
X10950D2*
X14396D1*
X15262D2*
X15375D1*
X16243D2*
X18357D1*
X24211D2*
X26404D1*
X6610Y15710D2*
X7087D1*
X11211D2*
X14267D1*
X16371D2*
X18107D1*
X20266D2*
X20786D1*
X21196D2*
X21907D1*
X24723D2*
X26404D1*
X6161Y15461D2*
X7146D1*
X11457D2*
X14271D1*
X16368D2*
X17857D1*
X18942D2*
X19114D1*
X20266D2*
X21759D1*
X24871D2*
X26404D1*
X6161Y15213D2*
X10751D1*
X11707D2*
X14404D1*
X18692D2*
X19114D1*
X20266D2*
X21751D1*
X24879D2*
X26404D1*
X6161Y14964D2*
X11001D1*
X11957D2*
X14372D1*
X24762D2*
X26404D1*
X6161Y14715D2*
X11251D1*
X12204D2*
X14111D1*
X24719D2*
X26404D1*
X5098Y14467D2*
X5470D1*
X6161D2*
X11497D1*
X12454D2*
X13864D1*
X20243D2*
X21739D1*
X24868D2*
X26404D1*
X5098Y14218D2*
X5470D1*
X6161D2*
X11747D1*
X12704D2*
X13669D1*
X20258D2*
X21739D1*
X24883D2*
X26404D1*
X5098Y13969D2*
X5470D1*
X6161D2*
X11997D1*
X12950D2*
X13657D1*
X14696D2*
X18431D1*
X24770D2*
X26404D1*
X5098Y13721D2*
X5470D1*
X6161D2*
X12243D1*
X13200D2*
X13657D1*
X14598D2*
X18681D1*
X24157D2*
X26404D1*
X5098Y13472D2*
X5470D1*
X6161D2*
X12493D1*
X13450D2*
X13657D1*
X14598D2*
X18950D1*
X24157D2*
X26404D1*
X6161Y13223D2*
X12743D1*
X14598D2*
X23052D1*
X24157D2*
X26404D1*
X6161Y12975D2*
X12989D1*
X14598D2*
X23157D1*
X24157D2*
X26404D1*
X6161Y12726D2*
X11185D1*
X14598D2*
X23157D1*
X24157D2*
X26404D1*
X6161Y12477D2*
X11087D1*
X14594D2*
X23157D1*
X24157D2*
X26404D1*
X6161Y12229D2*
X11138D1*
X11993D2*
X12521D1*
X14454D2*
X23157D1*
X24157D2*
X26404D1*
X6161Y11980D2*
X12614D1*
X14192D2*
X23157D1*
X24157D2*
X26404D1*
X6161Y11731D2*
X18626D1*
X19375D2*
X23157D1*
X24157D2*
X26404D1*
X6161Y11482D2*
X18525D1*
X19481D2*
X23157D1*
X24157D2*
X26404D1*
X6161Y11234D2*
X18532D1*
X19731D2*
X23157D1*
X24157D2*
X26404D1*
X6161Y10985D2*
X18532D1*
X19793D2*
X23157D1*
X24157D2*
X26404D1*
X6161Y10736D2*
X14880D1*
X15621D2*
X18532D1*
X19707D2*
X23157D1*
X24157D2*
X26404D1*
X6371Y10488D2*
X11384D1*
X16227D2*
X18532D1*
X19657D2*
X23157D1*
X24157D2*
X26404D1*
X6532Y10239D2*
X11134D1*
X16293D2*
X17071D1*
X19625D2*
X23157D1*
X24157D2*
X26404D1*
X5098Y9990D2*
X5536D1*
X6536D2*
X10888D1*
X19614D2*
X23157D1*
X24157D2*
X26404D1*
X5098Y9742D2*
X5595D1*
X6536D2*
X10638D1*
X19778D2*
X20689D1*
X21063D2*
X23157D1*
X24157D2*
X26404D1*
X5098Y9493D2*
X5595D1*
X6536D2*
X10388D1*
X19774D2*
X20431D1*
X24157D2*
X26404D1*
X5114Y9244D2*
X5595D1*
X6536D2*
X9200D1*
X12223D2*
X14075D1*
X20110D2*
X20404D1*
X24157D2*
X26404D1*
X5364Y8996D2*
X5595D1*
X6536D2*
X9087D1*
X11973D2*
X13829D1*
X24157D2*
X26404D1*
X6731Y8747D2*
X8892D1*
X11723D2*
X13579D1*
X23110D2*
X23470D1*
X24157D2*
X26404D1*
X4350Y8498D2*
X4532D1*
X6903D2*
X8646D1*
X11477D2*
X13329D1*
X23352D2*
X23469D1*
X24157D2*
X26404D1*
X4350Y8250D2*
X4779D1*
X6903D2*
X8396D1*
X11227D2*
X11336D1*
X24157D2*
X26404D1*
X4350Y8001D2*
X5029D1*
X6731D2*
X8146D1*
X10977D2*
X11086D1*
X20903D2*
X21661D1*
X24157D2*
X26404D1*
X4350Y7752D2*
X5279D1*
X6981D2*
X7900D1*
X10731D2*
X10837D1*
X14664D2*
X14845D1*
X15411D2*
X20157D1*
X20723D2*
X21665D1*
X24094D2*
X26404D1*
X4350Y7503D2*
X5525D1*
X9172D2*
X9337D1*
X14414D2*
X21583D1*
X24379D2*
X26404D1*
X4350Y7255D2*
X5775D1*
X24414D2*
X26404D1*
X4350Y7006D2*
X6025D1*
X22168D2*
X22407D1*
X24329D2*
X26404D1*
X4350Y6757D2*
X6271D1*
X24329D2*
X26404D1*
X4350Y6509D2*
X4665D1*
X6215D2*
X6521D1*
X13012D2*
X13868D1*
X19012D2*
X19868D1*
X24329D2*
X24665D1*
X26215D2*
X26404D1*
X6481Y6260D2*
X6771D1*
X12985D2*
X13896D1*
X18985D2*
X19896D1*
X6641Y6011D2*
X8071D1*
X12829D2*
X14071D1*
X14809D2*
X15071D1*
X15809D2*
X16071D1*
X16809D2*
X17071D1*
X17809D2*
X18071D1*
X18809D2*
X20071D1*
X20809D2*
X21071D1*
X21809D2*
X22071D1*
X6731Y5763D2*
X7864D1*
X12911D2*
X13970D1*
X6770Y5514D2*
X7864D1*
X13008D2*
X13868D1*
X6758Y5265D2*
X7864D1*
X12985D2*
X13892D1*
X6700Y5017D2*
X7864D1*
X9817D2*
X10064D1*
X12817D2*
X14052D1*
X14903D2*
X15064D1*
X15817D2*
X16064D1*
X16817D2*
X17064D1*
X17817D2*
X18064D1*
X18817D2*
X19064D1*
X6586Y4768D2*
X8095D1*
X11266D2*
X11595D1*
X12286D2*
X14095D1*
X4350Y4519D2*
X4489D1*
X6391D2*
X8099D1*
X12266D2*
X14321D1*
X24313D2*
X24489D1*
X16345Y15466D2*
X16310Y15367D1*
X17788Y15368D1*
X18807Y16386D1*
X18909Y16457D1*
X19043Y16492D1*
X20717Y16493D1*
X20849Y16560D1*
X20971Y16582D1*
X21095Y16570D1*
X21212Y16525D1*
X21258Y16490D1*
X23365Y16493D1*
X23502D1*
X23625Y16471D1*
X23745Y16400D1*
X24283Y15864D1*
X24347D1*
X24470Y15843D1*
X24585Y15795D1*
X24686Y15722D1*
X24768Y15628D1*
X24827Y15518D1*
X24859Y15397D1*
X24865Y15315D1*
X24851Y15191D1*
X24809Y15074D1*
X24742Y14968D1*
X24653Y14881D1*
X24543Y14815D1*
X24686Y14722D1*
X24768Y14628D1*
X24827Y14518D1*
X24859Y14397D1*
X24865Y14315D1*
X24851Y14191D1*
X24809Y14074D1*
X24742Y13968D1*
X24653Y13881D1*
X24547Y13816D1*
X24429Y13777D1*
X24304Y13765D1*
X24181Y13781D1*
X24133Y13799D1*
Y7941D1*
X24108Y7820D1*
X24161Y7713D1*
X24261Y7638D1*
X24336Y7539D1*
X24382Y7423D1*
X24395Y7315D1*
X24378Y7192D1*
X24328Y7077D1*
X24306Y7050D1*
X24305Y6085D1*
X24429Y6267D1*
X24605Y6445D1*
X24811Y6585D1*
X25041Y6684D1*
X25285Y6737D1*
X25534Y6743D1*
X25780Y6701D1*
X26014Y6614D1*
X26227Y6483D1*
X26411Y6314D1*
X26428Y6293D1*
X26430Y8200D1*
Y19587D1*
X26291Y19449D1*
X26087Y19305D1*
X25859Y19203D1*
X25616Y19146D1*
X25367Y19136D1*
X25120Y19173D1*
X24885Y19257D1*
X24670Y19385D1*
X24484Y19550D1*
X24332Y19748D1*
X24220Y19972D1*
X24154Y20212D1*
X24134Y20461D1*
X24162Y20709D1*
X24236Y20947D1*
X24355Y21167D1*
X24513Y21360D1*
X24591Y21431D1*
X16680Y21430D1*
X6293D1*
X6411Y21314D1*
X6559Y21114D1*
X6667Y20888D1*
X6730Y20647D1*
X6746Y20440D1*
X6722Y20192D1*
X6652Y19952D1*
X6537Y19731D1*
X6382Y19535D1*
X6193Y19372D1*
X5976Y19249D1*
X5739Y19168D1*
X5492Y19135D1*
X5243Y19149D1*
X5001Y19210D1*
X4775Y19316D1*
X4573Y19463D1*
X4403Y19646D1*
X4326Y19759D1*
X4325Y11590D1*
X4434Y11700D1*
X4433Y15628D1*
X4457Y15749D1*
X4526Y15854D1*
X4772Y16100D1*
X4765Y16211D1*
X4784Y16335D1*
X4830Y16450D1*
X4901Y16553D1*
X4997Y16639D1*
X4765Y16640D1*
Y17740D1*
X5865D1*
Y17510D1*
X5994Y17637D1*
X6103Y17698D1*
X6222Y17732D1*
X6347Y17739D1*
X6470Y17718D1*
X6585Y17670D1*
X6686Y17597D1*
X6768Y17503D1*
X6827Y17393D1*
X6859Y17272D1*
X6865Y17190D1*
X6851Y17066D1*
X6809Y16949D1*
X6742Y16843D1*
X6653Y16756D1*
X6543Y16690D1*
X6686Y16597D1*
X6768Y16503D1*
X6827Y16393D1*
X6859Y16272D1*
X6865Y16190D1*
X6851Y16066D1*
X6809Y15949D1*
X6742Y15843D1*
X6653Y15756D1*
X6547Y15691D1*
X6429Y15652D1*
X6304Y15640D1*
X6231Y15650D1*
X6135Y15558D1*
Y10702D1*
X6416Y10417D1*
X6485Y10314D1*
X6510Y10191D1*
Y8828D1*
X6661Y8776D1*
X6761Y8702D1*
X6836Y8602D1*
X6882Y8487D1*
X6895Y8379D1*
X6878Y8255D1*
X6828Y8141D1*
X6749Y8045D1*
X6701Y8011D1*
X7136Y7573D1*
X7748Y7574D1*
X9065Y8894D1*
X9112Y8941D1*
X9115Y9011D1*
X9151Y9131D1*
X9218Y9236D1*
X9311Y9319D1*
X9423Y9374D1*
X9545Y9396D1*
X9669Y9384D1*
X9786Y9339D1*
X9888Y9261D1*
X10186D1*
X11463Y10542D1*
X11566Y10611D1*
X11689Y10636D1*
X14842D1*
X14905Y10736D1*
X14998Y10819D1*
X15110Y10873D1*
X15232Y10896D1*
X15356Y10884D1*
X15473Y10839D1*
X15572Y10764D1*
X15641Y10674D1*
X15795Y10708D1*
X15919Y10696D1*
X16035Y10651D1*
X16135Y10576D1*
X16210Y10477D1*
X16256Y10361D1*
X16269Y10254D1*
X16252Y10134D1*
X16990Y10136D1*
X17212Y10355D1*
X17316Y10424D1*
X17439Y10449D1*
X18560D1*
X18556Y11316D1*
X18552Y11511D1*
X18587Y11631D1*
X18654Y11736D1*
X18747Y11819D1*
X18859Y11873D1*
X18982Y11896D1*
X19106Y11884D1*
X19222Y11839D1*
X19322Y11764D1*
X19397Y11665D1*
X19443Y11549D1*
X19456Y11437D1*
X19535Y11401D1*
X19634Y11326D1*
X19710Y11227D1*
X19756Y11111D1*
X19769Y11003D1*
X19751Y10880D1*
X19702Y10766D1*
X19635Y10685D1*
X19634Y10379D1*
X19609Y10257D1*
X19540Y10152D1*
X19449Y10061D1*
X19535Y10026D1*
X19634Y9951D1*
X19710Y9852D1*
X19756Y9736D1*
X19769Y9629D1*
X19751Y9505D1*
X19702Y9391D1*
X19623Y9295D1*
X19594Y9275D1*
X19673Y9310D1*
X19796Y9332D1*
X19920Y9320D1*
X20036Y9275D1*
X20138Y9197D1*
X20436Y9198D1*
X20424Y9262D1*
X20426Y9386D1*
X20462Y9506D1*
X20529Y9611D1*
X20622Y9694D1*
X20734Y9749D1*
X20857Y9771D1*
X20981Y9759D1*
X21097Y9714D1*
X21197Y9639D1*
X21282Y9515D1*
X22251Y9511D1*
X23184D1*
X23181Y10254D1*
Y13125D1*
X22868Y13433D1*
X19126D1*
X19004Y13457D1*
X18900Y13527D1*
X18306Y14121D1*
X14818D1*
X14570Y13869D1*
X14572Y12503D1*
X14547Y12381D1*
X14478Y12277D1*
X14228Y12027D1*
X14125Y11958D1*
X14002Y11933D1*
X13326D1*
X13209Y11848D1*
X13091Y11807D1*
X12966Y11800D1*
X12845Y11826D1*
X12735Y11885D1*
X12645Y11971D1*
X12582Y12079D1*
X12550Y12199D1*
X12552Y12312D1*
X11998Y12308D1*
X11952Y12203D1*
X11873Y12107D1*
X11771Y12036D1*
X11653Y11995D1*
X11529Y11987D1*
X11407Y12014D1*
X11297Y12072D1*
X11207Y12159D1*
X11144Y12266D1*
X11113Y12387D1*
X11115Y12511D1*
X11151Y12630D1*
X11218Y12736D1*
X11311Y12819D1*
X11423Y12873D1*
X11572Y12893D1*
X11625Y12922D1*
X11752Y12948D1*
X13045D1*
X11766Y14224D1*
X10620Y15370D1*
X7889D1*
X7772Y15285D1*
X7654Y15244D1*
X7530Y15236D1*
X7408Y15263D1*
X7298Y15322D1*
X7208Y15408D1*
X7145Y15515D1*
X7113Y15636D1*
X7115Y15760D1*
X7151Y15880D1*
X7218Y15985D1*
X7311Y16068D1*
X7423Y16122D1*
X7546Y16145D1*
X7670Y16133D1*
X7786Y16088D1*
X7888Y16010D1*
X8520Y16016D1*
X8488Y16136D1*
X8490Y16261D1*
X8526Y16380D1*
X8593Y16485D1*
X8686Y16568D1*
X8798Y16623D1*
X8940Y16643D1*
X11151Y18854D1*
X11254Y18923D1*
X11377Y18948D1*
X18689D1*
X18810Y18924D1*
X18915Y18854D1*
X19260Y18509D1*
X21114Y18510D1*
X21185Y18568D1*
X21297Y18623D1*
X21419Y18645D1*
X21543Y18633D1*
X21659Y18588D1*
X21759Y18513D1*
X21835Y18414D1*
X21880Y18298D1*
X21893Y18190D1*
X21876Y18067D1*
X21826Y17953D1*
X21747Y17856D1*
X21645Y17785D1*
X21527Y17744D1*
X21403Y17737D1*
X21281Y17763D1*
X21171Y17822D1*
X21118Y17873D1*
X20063Y17870D1*
X19126D1*
X19004Y17894D1*
X18900Y17964D1*
X18555Y18309D1*
X11513Y18308D1*
X9835Y16634D1*
X9395Y16190D1*
X9378Y16067D1*
X9351Y16006D1*
X10065Y16010D1*
X10752D1*
X10874Y15986D1*
X10979Y15916D1*
X13495Y13400D1*
X13663Y13390D1*
X13681Y13383D1*
X13682Y14128D1*
X13706Y14250D1*
X13775Y14354D1*
X14338Y14917D1*
X14441Y14986D1*
X14564Y15011D1*
X14896D1*
X14818Y15040D1*
X14694Y15057D1*
X14578Y15101D1*
X14474Y15170D1*
X14388Y15260D1*
X14325Y15368D1*
X14288Y15487D1*
X14279Y15612D1*
X14298Y15735D1*
X14344Y15851D1*
X14415Y15953D1*
X14507Y16037D1*
X14616Y16098D1*
X14736Y16133D1*
X14861Y16140D1*
X14983Y16118D1*
X15098Y16070D1*
X15200Y15997D1*
X15282Y15903D1*
X15316Y15838D1*
X15395Y15953D1*
X15421Y15977D1*
X15368Y16040D1*
X15305Y16148D1*
X15268Y16267D1*
X15259Y16392D1*
X15278Y16515D1*
X15324Y16631D1*
X15395Y16733D1*
X15487Y16817D1*
X15596Y16878D1*
X15716Y16913D1*
X15841Y16920D1*
X15963Y16898D1*
X16078Y16850D1*
X16180Y16777D1*
X16262Y16683D1*
X16320Y16573D1*
X16353Y16452D1*
X16359Y16370D1*
X16345Y16246D1*
X16303Y16129D1*
X16236Y16024D1*
X16194Y15983D1*
X16262Y15903D1*
X16320Y15793D1*
X16353Y15672D1*
X16359Y15590D1*
X16345Y15466D1*
X5491Y14673D2*
X5429Y14652D1*
X5304Y14640D1*
X5181Y14656D1*
X5075Y14696D1*
X5073Y13186D1*
X5222Y13232D1*
X5347Y13239D1*
X5495Y13207D1*
Y14672D1*
X5401Y10149D2*
X5304Y10140D1*
X5181Y10156D1*
X5075Y10196D1*
X5073Y9264D1*
X5622Y8711D1*
X5620Y9930D1*
X5407Y10145D1*
X21765Y14073D2*
Y14495D1*
X20209Y14496D1*
X20234Y14397D1*
X20240Y14315D1*
X20226Y14191D1*
X20182Y14070D1*
X21126Y14073D1*
X21763D1*
X21799Y15134D2*
X21774Y15212D1*
X21765Y15336D1*
X21784Y15460D1*
X21830Y15575D1*
X21901Y15678D1*
X21997Y15764D1*
X21264Y15763D1*
X21197Y15722D1*
X21080Y15681D1*
X20955Y15674D1*
X20833Y15700D1*
X20721Y15762D1*
X20237Y15763D1*
X20240Y15365D1*
Y15135D1*
X21794Y15136D1*
X19140D2*
Y15683D1*
X18591Y15137D1*
X19138Y15136D1*
X22140Y20615D2*
X23115D1*
Y19515D1*
X22885D1*
X22936Y19472D1*
X23018Y19378D1*
X23077Y19268D1*
X23109Y19147D1*
X23115Y19065D1*
X23101Y18941D1*
X23059Y18824D1*
X22992Y18718D1*
X22903Y18631D1*
X22797Y18566D1*
X22679Y18527D1*
X22554Y18515D1*
X22431Y18531D1*
X22314Y18575D1*
X22210Y18644D1*
X22125Y18735D1*
X22062Y18843D1*
X22024Y18962D1*
X22015Y19086D1*
X22034Y19210D1*
X22080Y19325D1*
X22151Y19428D1*
X22247Y19514D1*
X22015Y19515D1*
Y20615D1*
X22140D1*
X8015Y5990D2*
X8120D1*
X8000Y6110D1*
X7994Y6120D1*
X7066D1*
X6944Y6144D1*
X6840Y6214D1*
X4324Y8730D1*
X4325Y6121D1*
X4429Y6267D1*
X4605Y6445D1*
X4811Y6585D1*
X5041Y6684D1*
X5285Y6737D1*
X5534Y6743D1*
X5780Y6701D1*
X6014Y6614D1*
X6227Y6483D1*
X6411Y6314D1*
X6559Y6114D1*
X6667Y5888D1*
X6730Y5647D1*
X6746Y5440D1*
X6722Y5192D1*
X6652Y4952D1*
X6537Y4731D1*
X6382Y4535D1*
X6193Y4372D1*
X6117Y4324D1*
X8227Y4325D1*
X8146Y4440D1*
X8120Y4567D1*
X8115Y4890D1*
X7890D1*
Y5990D1*
X8015D1*
X9938Y5210D2*
X9867Y5093D1*
X9778Y5006D1*
X9672Y4941D1*
X9554Y4902D1*
X9429Y4890D1*
X9306Y4906D1*
X9377Y4887D1*
X10429Y4890D1*
X10306Y4906D1*
X10189Y4950D1*
X10085Y5019D1*
X10000Y5110D1*
X9939Y5214D1*
X11616Y4923D2*
X11554Y4902D1*
X11429Y4890D1*
X11306Y4906D1*
X11258Y4924D1*
X11259Y4883D1*
X11237Y4761D1*
X11152Y4639D1*
X11163Y4652D1*
X11190Y4637D1*
X11498D1*
X11619Y4761D1*
Y4922D1*
X12976Y5316D2*
X12934Y5199D1*
X12867Y5093D1*
X12778Y5006D1*
X12672Y4941D1*
X12554Y4902D1*
X12429Y4890D1*
X12306Y4906D1*
X12258Y4924D1*
X12259Y4629D1*
X12235Y4507D1*
X12166Y4403D1*
X12085Y4323D1*
X14540Y4325D1*
X14182Y4682D1*
X14110Y4784D1*
X14076Y4918D1*
X14075Y5030D1*
X14000Y5110D1*
X13937Y5218D1*
X13899Y5337D1*
X13890Y5461D1*
X13909Y5585D1*
X13955Y5700D1*
X14026Y5803D1*
X14119Y5887D1*
X14211Y5938D1*
X14085Y6019D1*
X14000Y6110D1*
X13937Y6218D1*
X13899Y6337D1*
X13890Y6461D1*
X13909Y6585D1*
X13957Y6704D1*
X13028Y6701D1*
X12955Y6629D1*
X12984Y6522D1*
X12990Y6440D1*
X12976Y6316D1*
X12934Y6199D1*
X12867Y6093D1*
X12803Y6031D1*
X12805Y5850D1*
X12893Y5753D1*
X12952Y5643D1*
X12984Y5522D1*
X12990Y5440D1*
X12976Y5316D1*
X14938Y5210D2*
X14867Y5093D1*
X14837Y5063D1*
X15093Y4803D1*
X19440Y4805D1*
X19624D1*
X19531Y4897D1*
X19429Y4890D1*
X19306Y4906D1*
X19189Y4950D1*
X19085Y5019D1*
X19000Y5110D1*
X18939Y5214D1*
X18867Y5093D1*
X18778Y5006D1*
X18672Y4941D1*
X18554Y4902D1*
X18429Y4890D1*
X18306Y4906D1*
X18189Y4950D1*
X18085Y5019D1*
X18000Y5110D1*
X17939Y5214D1*
X17867Y5093D1*
X17778Y5006D1*
X17672Y4941D1*
X17554Y4902D1*
X17429Y4890D1*
X17306Y4906D1*
X17189Y4950D1*
X17085Y5019D1*
X17000Y5110D1*
X16939Y5214D1*
X16867Y5093D1*
X16778Y5006D1*
X16672Y4941D1*
X16554Y4902D1*
X16429Y4890D1*
X16306Y4906D1*
X16189Y4950D1*
X16085Y5019D1*
X16000Y5110D1*
X15939Y5214D1*
X15867Y5093D1*
X15778Y5006D1*
X15672Y4941D1*
X15554Y4902D1*
X15429Y4890D1*
X15306Y4906D1*
X15189Y4950D1*
X15085Y5019D1*
X15000Y5110D1*
X14939Y5214D1*
X14663Y5939D2*
X14710Y5920D1*
X14811Y5847D1*
X14893Y5753D1*
X14939Y5667D1*
X15026Y5803D1*
X15119Y5887D1*
X15211Y5938D1*
X15085Y6019D1*
X15000Y6110D1*
X14939Y6214D1*
X14867Y6093D1*
X14778Y6006D1*
X14668Y5940D1*
X15663Y5939D2*
X15710Y5920D1*
X15811Y5847D1*
X15893Y5753D1*
X15939Y5667D1*
X16026Y5803D1*
X16119Y5887D1*
X16211Y5938D1*
X16085Y6019D1*
X16000Y6110D1*
X15939Y6214D1*
X15867Y6093D1*
X15778Y6006D1*
X15668Y5940D1*
X16663Y5939D2*
X16710Y5920D1*
X16811Y5847D1*
X16893Y5753D1*
X16939Y5667D1*
X17026Y5803D1*
X17119Y5887D1*
X17211Y5938D1*
X17085Y6019D1*
X17000Y6110D1*
X16939Y6214D1*
X16867Y6093D1*
X16778Y6006D1*
X16668Y5940D1*
X17663Y5939D2*
X17710Y5920D1*
X17811Y5847D1*
X17893Y5753D1*
X17939Y5667D1*
X18026Y5803D1*
X18119Y5887D1*
X18211Y5938D1*
X18085Y6019D1*
X18000Y6110D1*
X17939Y6214D1*
X17867Y6093D1*
X17778Y6006D1*
X17668Y5940D1*
X18663Y5939D2*
X18710Y5920D1*
X18811Y5847D1*
X18893Y5753D1*
X18939Y5667D1*
X19026Y5803D1*
X19119Y5887D1*
X19228Y5948D1*
X19347Y5982D1*
X19472Y5989D1*
X19595Y5968D1*
X19710Y5920D1*
X19811Y5847D1*
X19893Y5753D1*
X19939Y5667D1*
X20026Y5803D1*
X20119Y5887D1*
X20211Y5938D1*
X20085Y6019D1*
X20000Y6110D1*
X19937Y6218D1*
X19899Y6337D1*
X19890Y6461D1*
X19909Y6585D1*
X19957Y6704D1*
X18927Y6701D1*
X18984Y6522D1*
X18990Y6440D1*
X18976Y6316D1*
X18934Y6199D1*
X18867Y6093D1*
X18778Y6006D1*
X18668Y5940D1*
X20663Y5939D2*
X20710Y5920D1*
X20811Y5847D1*
X20893Y5753D1*
X20939Y5667D1*
X21026Y5803D1*
X21119Y5887D1*
X21211Y5938D1*
X21085Y6019D1*
X21000Y6110D1*
X20939Y6214D1*
X20867Y6093D1*
X20778Y6006D1*
X20668Y5940D1*
X21663Y5939D2*
X21710Y5920D1*
X21811Y5847D1*
X21893Y5753D1*
X21939Y5667D1*
X22026Y5803D1*
X22119Y5887D1*
X22211Y5938D1*
X22085Y6019D1*
X22000Y6110D1*
X21939Y6214D1*
X21867Y6093D1*
X21778Y6006D1*
X21668Y5940D1*
X21885Y6761D2*
X21939Y6667D1*
X22026Y6803D1*
X22119Y6887D1*
X22228Y6948D1*
X22347Y6982D1*
X22429Y6987D1*
X22431Y7301D1*
X22295Y7157D1*
X21932Y6796D1*
X4758Y4327D2*
X4573Y4463D1*
X4403Y4646D1*
X4326Y4759D1*
X4325Y4325D1*
X4759D1*
X24758Y4327D2*
X24573Y4463D1*
X24403Y4646D1*
X24303Y4799D1*
X24305Y4628D1*
X24284Y4505D1*
X24213Y4385D1*
X24151Y4322D1*
X24759Y4325D1*
X14318Y7431D2*
X21537D1*
X21742Y7637D1*
X21706Y7704D1*
X21674Y7825D1*
X21676Y7949D1*
X21712Y8068D1*
X21788Y8181D1*
X20889Y8183D1*
X20895Y8128D1*
X20878Y8004D1*
X20828Y7890D1*
X20749Y7794D1*
X20647Y7722D1*
X20529Y7681D1*
X20405Y7674D1*
X20283Y7700D1*
X20173Y7759D1*
X20120Y7810D1*
X19065Y7808D1*
X15452D1*
X15334Y7722D1*
X15217Y7681D1*
X15092Y7674D1*
X14970Y7700D1*
X14861Y7759D1*
X14757Y7869D1*
X14319Y7431D1*
X13304Y8446D2*
X14105Y9247D1*
X12200Y9246D1*
X10916Y7964D1*
X10813Y7895D1*
X10687Y7733D1*
X10584Y7662D1*
X10467Y7621D1*
X10393Y7616D1*
X10502Y7511D1*
X10623D1*
X11463Y8355D1*
X11566Y8424D1*
X11689Y8449D1*
X13310D1*
X9622Y7982D2*
X9146Y7504D1*
X9129Y7380D1*
X9106Y7327D1*
X9186Y7324D1*
X9484Y7625D1*
X9490Y7698D1*
X9526Y7818D1*
X9593Y7923D1*
X9619Y7946D1*
X23188Y8871D2*
X22958D1*
X23289Y8543D1*
X23359Y8439D1*
X23383Y8316D1*
Y7961D1*
X23494Y8075D1*
X23493Y8930D1*
X23440Y8897D1*
X23313Y8871D1*
X23188D1*
D23*
X17689Y17440D3*
X12949D3*
D24*
X15809Y15590D3*
X14829D3*
X15809Y16370D3*
X14829D3*
D25*
X5315Y17190D3*
D24*
X6315D3*
X5315Y16190D3*
X6315D3*
X5315Y15190D3*
X6315D3*
D25*
X5315Y9690D3*
D24*
Y10690D3*
Y11690D3*
Y12690D3*
D25*
X22315Y14315D3*
D24*
Y15315D3*
X23315Y14315D3*
Y15315D3*
X24315Y14315D3*
Y15315D3*
D25*
X19690D3*
D24*
Y14315D3*
D25*
X22565Y20065D3*
D24*
Y19065D3*
D25*
X8440Y5440D3*
D24*
Y6440D3*
X9440Y5440D3*
Y6440D3*
X10440Y5440D3*
Y6440D3*
X11440Y5440D3*
Y6440D3*
X12440Y5440D3*
Y6440D3*
X13440Y5440D3*
Y6440D3*
X14440Y5440D3*
Y6440D3*
X15440Y5440D3*
Y6440D3*
X16440Y5440D3*
Y6440D3*
X17440Y5440D3*
Y6440D3*
X18440Y5440D3*
Y6440D3*
X19440Y5440D3*
Y6440D3*
X20440Y5440D3*
Y6440D3*
X21440Y5440D3*
Y6440D3*
X22440Y5440D3*
Y6440D3*
M02*
