M48
INCH
T01C0.019
T02C0.0354
T03C0.09
T04C0.12
%
T01
X+009065Y+019003
X+008877Y+017565
X+008940Y+016190
X+009815Y+015315
X+010440Y+014315
X+010440Y+013315
X+011564Y+012441
X+011440Y+011565
X+011817Y+011001
X+010627Y+009941
X+009565Y+008941
X+010377Y+008067
X+010814Y+007754
X+009940Y+007628
X+008691Y+007504
X+007440Y+007690
X+006440Y+008379
X+005190Y+007440
X+004565Y+007065
X+004565Y+008190
X+007627Y+005440
X+007877Y+011503
X+008690Y+011503
X+007565Y+015690
X+010315Y+016565
X+012565Y+014815
X+013315Y+013940
X+013558Y+012948
X+013002Y+012253
X+014565Y+011690
X+014565Y+010815
X+015251Y+010441
X+015814Y+010254
X+015127Y+008128
X+014690Y+007565
X+013002Y+008566
X+018064Y+008566
X+018626Y+008566
X+019001Y+008941
X+019440Y+008503
X+019815Y+008878
X+019314Y+009629
X+019314Y+011003
X+019001Y+011441
X+018565Y+012190
X+017815Y+012690
X+020815Y+012690
X+022690Y+010940
X+023065Y+011440
X+024565Y+011065
X+024440Y+009440
X+024940Y+007940
X+023940Y+007315
X+022126Y+007879
X+021440Y+007690
X+020440Y+008128
X+019315Y+007565
X+018690Y+007565
X+018065Y+007565
X+020876Y+009316
X+024315Y+013065
X+025440Y+014940
X+024440Y+016440
X+023440Y+017440
X+024940Y+018440
X+025940Y+018440
X+025940Y+017440
X+021438Y+018190
X+020940Y+017440
X+020990Y+016128
X+019440Y+017440
X+018190Y+016190
X+015940Y+017940
X+014440Y+017940
X+013940Y+019940
X+015940Y+019940
X+018190Y+019815
X+019315Y+019815
X+011565Y+020190
X+011565Y+021190
X+010565Y+021190
X+009690Y+021190
X+008815Y+021190
X+007940Y+021190
X+007065Y+021190
X+007065Y+020190
X+007065Y+019190
X+005940Y+018690
X+004690Y+018690
T02
X+015809Y+015590
X+015809Y+016370
X+014829Y+016370
X+014829Y+015590
X+019690Y+015315
X+019690Y+014315
X+022315Y+014315
X+022315Y+015315
X+023315Y+015315
X+023315Y+014315
X+024315Y+014315
X+024315Y+015315
X+022565Y+019065
X+022565Y+020065
X+022440Y+006440
X+021440Y+006440
X+020440Y+006440
X+020440Y+005440
X+021440Y+005440
X+022440Y+005440
X+019440Y+005440
X+018440Y+005440
X+017440Y+005440
X+017440Y+006440
X+018440Y+006440
X+019440Y+006440
X+016440Y+006440
X+015440Y+006440
X+014440Y+006440
X+014440Y+005440
X+015440Y+005440
X+016440Y+005440
X+013440Y+005440
X+012440Y+005440
X+012440Y+006440
X+013440Y+006440
X+011440Y+006440
X+011440Y+005440
X+010440Y+005440
X+010440Y+006440
X+009440Y+006440
X+009440Y+005440
X+008440Y+005440
X+008440Y+006440
X+005315Y+009690
X+005315Y+010690
X+005315Y+011690
X+005315Y+012690
X+005315Y+015190
X+006315Y+015190
X+006315Y+016190
X+006315Y+017190
X+005315Y+017190
X+005315Y+016190
T03
X+017689Y+017440
X+012949Y+017440
T04
X+005440Y+020440
X+005440Y+005440
X+025440Y+005440
X+025440Y+020440
T00
M30
