G04 DipTrace 2.1.9.5*
%INTop.gbr*%
%MOIN*%
%ADD13C,0.013*%
%ADD14C,0.022*%
%ADD15C,0.025*%
%ADD16R,0.0394X0.0433*%
%ADD17R,0.0433X0.0394*%
%ADD19R,0.0197X0.0669*%
%ADD20R,0.0669X0.0197*%
%ADD22R,0.0787X0.2165*%
%ADD23C,0.17*%
%ADD24C,0.0591*%
%ADD25R,0.0591X0.0591*%
%ADD26R,0.0236X0.0787*%
%ADD27R,0.126X0.0787*%
%ADD28R,0.0591X0.0512*%
%ADD29R,0.0512X0.0591*%
%ADD30C,0.04*%
%FSLAX44Y44*%
%SFA1B1*%
%OFA0B0*%
G04*
G70*
G90*
G75*
G01*
%LNTop*%
%LPD*%
X13389Y11316D2*
D13*
X12814D1*
X12315Y11815D1*
Y12020D1*
X12224Y12111D1*
X11564Y12441D2*
X11894Y12111D1*
X12224D1*
X23315Y14315D2*
X24127Y13503D1*
X25313D1*
X25688Y13128D1*
Y7441D1*
X25563Y7316D1*
X24625D1*
X23251Y5942D1*
X21188D1*
X20938Y5692D1*
Y5254D1*
X20626Y4942D1*
X15251D1*
X14939Y5254D1*
Y5754D1*
X14440Y6253D1*
Y6440D1*
X22190Y9940D2*
Y9021D1*
X22109Y8940D1*
X22190Y9940D2*
D14*
Y11315D1*
X21690Y11815D1*
Y15428D1*
X20990Y16128D1*
X10485Y19003D2*
X10438Y18956D1*
Y17565D1*
X14829Y15590D2*
X14104Y16315D1*
X11940D1*
X10690Y17565D1*
X10438D1*
X22126Y7879D2*
X22190Y7943D1*
Y9940D1*
X14570Y9190D2*
D13*
Y8697D1*
X14189Y8316D1*
X13252D1*
X13002Y8566D1*
X13389Y11001D2*
X11817D1*
X13315Y13940D2*
X12889Y13514D1*
Y13446D1*
X13440Y6440D2*
Y5440D1*
X12224Y12780D2*
X12127Y12877D1*
Y14377D1*
X12565Y14815D1*
X22627Y8065D2*
X22565Y8127D1*
Y9503D1*
X22690Y9628D1*
Y9940D1*
X13389Y10371D2*
X12809D1*
X12690Y10253D1*
X10877D1*
X10627Y10503D1*
Y12440D1*
X11565Y13378D1*
Y14253D1*
X11065Y14753D1*
Y14815D1*
X11877D2*
Y13315D1*
X10877Y12315D1*
Y10628D1*
X10940Y10565D1*
X12502D1*
X12627Y10690D1*
X13385D1*
X13389Y10686D1*
X11877Y15484D2*
X13708D1*
X14377Y14816D1*
X15876D1*
X16376Y15316D1*
Y16190D1*
X16251Y16315D1*
X15864D1*
X15809Y16370D1*
X11065Y15484D2*
Y15566D1*
X11439Y15940D1*
X13689D1*
X14564Y15066D1*
X15284D1*
X15809Y15590D1*
X8315Y17190D2*
X6315D1*
X20815Y10771D2*
X21213Y10372D1*
X21646Y9940D1*
X21690D1*
X21440Y8940D2*
X21690Y9190D1*
Y9940D1*
X19690Y15315D2*
X21213Y13792D1*
Y10372D1*
X23690Y9940D2*
X24105Y10355D1*
X25105D1*
X23690Y8940D2*
X23900Y8730D1*
X25105D1*
X23690Y8940D2*
Y9940D1*
X20191Y20191D2*
X20230Y20152D1*
Y18775D1*
X20939Y20191D2*
X21065Y20065D1*
X22565D1*
X16696Y11316D2*
X17314D1*
X18376Y10254D1*
Y8879D1*
X18064Y8566D1*
X16696Y11631D2*
X17374D1*
X18626Y10379D1*
Y8566D1*
X6440Y8379D2*
Y6566D1*
X7127Y5879D1*
Y5129D1*
X7502Y4754D1*
X9127D1*
X9440Y5067D1*
Y5440D1*
X16696Y11946D2*
X17434D1*
X18876Y10504D1*
Y9066D1*
X19001Y8941D1*
X16145Y12497D2*
X17258D1*
X19314Y10441D1*
Y9629D1*
X9190Y6690D2*
X9440Y6440D1*
X5315Y17190D2*
X4378Y16253D1*
Y9441D1*
X5003Y8816D1*
X6877D1*
X7690Y8004D1*
X8940D1*
X9190Y7754D1*
Y6690D1*
X10440Y5440D2*
Y5504D1*
X10002Y5942D1*
X8065D1*
X7815Y6191D1*
Y6879D1*
X8440Y7504D1*
X8691D1*
X15814Y10254D2*
Y12481D1*
X15830Y12497D1*
X6565Y10690D2*
X5315D1*
X15515Y12497D2*
Y10704D1*
X15251Y10441D1*
X9565Y8941D2*
X9502Y8879D1*
Y7378D1*
X10440Y6440D1*
X5315Y11690D2*
X6234D1*
X6565Y12021D1*
X15200Y12497D2*
Y13077D1*
X15251Y13128D1*
X18564D1*
X19189Y12503D1*
Y11628D1*
X19001Y11441D1*
X9940Y7628D2*
X10939Y6628D1*
Y5941D1*
X11440Y5440D1*
X14885Y12497D2*
Y13262D1*
X15001Y13378D1*
X18689D1*
X19439Y12628D1*
Y11128D1*
X19314Y11003D1*
X10377Y8067D2*
Y7565D1*
X11440Y6503D1*
Y6440D1*
X19690Y14315D2*
X20440Y13565D1*
Y8128D1*
Y6440D1*
X15200Y9190D2*
X15190Y9180D1*
Y8632D1*
X15127D1*
Y8128D1*
X22565Y19065D2*
Y19127D1*
X22787Y19349D1*
X23315Y19877D1*
Y20378D1*
X22815Y20878D1*
X17940D1*
X16627Y19565D1*
Y15190D1*
X15815Y14378D1*
X13065D1*
X12377Y13690D1*
Y13315D1*
X12627Y13065D1*
Y11940D1*
X12940Y11628D1*
X13385D1*
X13389Y11631D1*
X21440Y5440D2*
X22127Y4753D1*
X23065D1*
X23877Y5565D1*
Y6190D1*
X24752Y7065D1*
X25690D1*
X25940Y7315D1*
Y16315D1*
X22906Y19349D1*
X22787D1*
X13389Y11946D2*
X13081Y12253D1*
X13002D1*
X20876Y9316D2*
Y7004D1*
X21440Y6440D1*
X14255Y12497D2*
Y13692D1*
X14440Y13878D1*
X18940D1*
X19940Y12878D1*
Y9003D1*
X19815Y8878D1*
X14570Y12497D2*
Y13445D1*
X14752Y13628D1*
X18815D1*
X19690Y12753D1*
Y9315D1*
X19440Y9065D1*
Y8503D1*
X15515Y9190D2*
X15502Y9178D1*
Y7377D1*
X14940Y6815D1*
Y6190D1*
X15440Y5690D1*
Y5440D1*
Y6440D2*
Y6690D1*
X15815Y7065D1*
Y9175D1*
X15830Y9190D1*
X16145D2*
Y6895D1*
X15940Y6690D1*
Y5940D1*
X16440Y5440D1*
X16696Y9741D2*
X16565Y9610D1*
Y6565D1*
X16440Y6440D1*
X16696Y10056D2*
X17074D1*
X17315Y9815D1*
Y9565D1*
X16815Y9065D1*
Y6690D1*
X16940Y6565D1*
Y5940D1*
X17440Y5440D1*
X16696Y10371D2*
X17134D1*
X17565Y9940D1*
Y9440D1*
X17065Y8940D1*
Y6815D1*
X17440Y6440D1*
X16696Y10686D2*
X17194D1*
X17815Y10065D1*
Y9315D1*
X17315Y8815D1*
Y7190D1*
X17940Y6565D1*
Y5940D1*
X18440Y5440D1*
X16696Y11001D2*
X17254D1*
X18065Y10190D1*
Y9190D1*
X17565Y8690D1*
Y7315D1*
X18440Y6440D1*
X20900Y18775D2*
X21484Y18190D1*
X23315Y16359D1*
Y15315D1*
X5315Y12690D2*
X6565D1*
X13389Y9741D2*
Y10056D1*
Y9741D2*
X14764D1*
X14877Y9629D1*
Y9198D1*
X14885Y9190D1*
X12087Y9668D2*
X13315D1*
X13389Y9741D1*
X8315Y16521D2*
X8609D1*
X8877Y16253D1*
Y15191D1*
X8627Y14941D1*
X8395D1*
X8355Y14980D1*
X6565Y12690D2*
X6940Y12315D1*
Y14441D1*
X7502Y15003D1*
X8333D1*
X8355Y14980D1*
X8877Y16253D2*
X8940Y16190D1*
X21438Y18190D2*
X21484D1*
X6940Y12315D2*
Y9979D1*
Y9191D1*
X7877Y8254D1*
X8815D1*
X9127Y8566D1*
Y9066D1*
X9440Y9379D1*
X9815D1*
X10502Y8691D1*
X12314D1*
X12939Y8066D1*
X14314D1*
X14885Y8637D1*
Y9190D1*
X11921Y8254D2*
Y8298D1*
X12314Y8691D1*
X6565Y10021D2*
X6606Y9979D1*
X6940D1*
X23190Y9940D2*
Y9109D1*
X23021Y8940D1*
X22315Y14315D2*
Y15315D1*
X25064Y12066D2*
D14*
X24566D1*
X23190Y10690D1*
Y9940D1*
X22315Y15315D2*
Y14317D1*
X24566Y12066D1*
X23021Y8940D2*
X23190Y9109D1*
Y9940D1*
X23940Y7315D2*
X23021Y8234D1*
Y8940D1*
X8440Y13378D2*
D13*
X8565Y13253D1*
X9877D1*
X10252Y12878D1*
Y9691D1*
X10689Y9254D1*
X13876D1*
X13940Y9190D1*
X8440Y9638D2*
X9493Y10691D1*
X9877D1*
Y9691D1*
X10627Y8941D1*
X13377D1*
X13689Y8629D1*
X14127D1*
X14252Y8754D1*
Y9187D1*
X14255Y9190D1*
X13558Y13446D2*
Y12948D1*
Y12879D1*
X13940Y12497D1*
Y13940D1*
X14127Y14128D1*
X19065D1*
X20190Y13003D1*
Y8565D1*
X19940Y8315D1*
Y5940D1*
X20440Y5440D1*
X5315Y15190D2*
X5815Y15690D1*
X7565D1*
X8315D1*
X8355Y15650D1*
D30*
X11564Y12441D3*
X20990Y16128D3*
X22126Y7879D3*
X13002Y8566D3*
X11817Y11001D3*
X18064Y8566D3*
X18626D3*
X6440Y8379D3*
X19001Y8941D3*
X19314Y9629D3*
X8691Y7504D3*
X15814Y10254D3*
X15251Y10441D3*
X9565Y8941D3*
X19001Y11441D3*
X9940Y7628D3*
X19314Y11003D3*
X10377Y8067D3*
X15127Y8128D3*
X20440D3*
X13002Y12253D3*
X20876Y9316D3*
X19815Y8878D3*
X19440Y8503D3*
X8940Y16190D3*
X21438Y18190D3*
X23940Y7315D3*
X13558Y12948D3*
X7565Y15690D3*
X9065Y19003D3*
X8877Y17565D3*
X13940Y19940D3*
X15940D3*
X14440Y17940D3*
X15940D3*
X19440Y17440D3*
X20940D3*
X23440D3*
X24440Y16440D3*
X24940Y18440D3*
X25940D3*
Y17440D3*
X25440Y14940D3*
X24940Y7940D3*
X18065Y7565D3*
X18690D3*
X19315D3*
X14690D3*
X7440Y7690D3*
X4565Y8190D3*
Y7065D3*
X5190Y7440D3*
X10440Y14315D3*
Y13315D3*
X9815Y15315D3*
X10315Y16565D3*
X12565Y14815D3*
X11440Y11565D3*
X14565Y11690D3*
Y10815D3*
X17815Y12690D3*
X18565Y12190D3*
X18190Y19815D3*
X19315D3*
X7065Y21190D3*
X7940D3*
X8815D3*
X9690D3*
X10565D3*
X11565D3*
X7065Y20190D3*
Y19190D3*
X5940Y18690D3*
X4690D3*
X11565Y20190D3*
X18190Y16190D3*
X20815Y12690D3*
X23065Y11440D3*
X22690Y10940D3*
X24315Y13065D3*
X21440Y7690D3*
X13315Y13940D3*
X24565Y11065D3*
X24440Y9440D3*
X10814Y7754D3*
X7627Y5440D3*
X7877Y11503D3*
X8690D3*
X10627Y9941D3*
X6539Y21181D2*
D15*
X17814D1*
X22942D2*
X24341D1*
X6676Y20933D2*
X17517D1*
X23239D2*
X24204D1*
X6746Y20684D2*
X17271D1*
X23485D2*
X24130D1*
X6770Y20435D2*
X17021D1*
X17977D2*
X19654D1*
X21473D2*
X21989D1*
X23653D2*
X24111D1*
X6746Y20187D2*
X16771D1*
X17727D2*
X19654D1*
X23661D2*
X24134D1*
X6672Y19938D2*
X16525D1*
X17477D2*
X19654D1*
X23661D2*
X24208D1*
X6536Y19689D2*
X16306D1*
X17231D2*
X19654D1*
X21473D2*
X21989D1*
X23598D2*
X24345D1*
X4350Y19440D2*
X4575D1*
X6305D2*
X9318D1*
X10981D2*
X16282D1*
X16981D2*
X19884D1*
X20575D2*
X22138D1*
X23356D2*
X24575D1*
X26305D2*
X26406D1*
X4350Y19192D2*
X5029D1*
X5848D2*
X9318D1*
X10981D2*
X16282D1*
X16973D2*
X19736D1*
X21395D2*
X22005D1*
X23539D2*
X25029D1*
X25848D2*
X26404D1*
X4350Y18943D2*
X9318D1*
X10981D2*
X16282D1*
X16973D2*
X19736D1*
X21395D2*
X22005D1*
X23789D2*
X26404D1*
X4350Y18694D2*
X9318D1*
X10981D2*
X16282D1*
X16973D2*
X19736D1*
X21457D2*
X22134D1*
X22996D2*
X23086D1*
X24039D2*
X26404D1*
X4350Y18446D2*
X10048D1*
X10829D2*
X16282D1*
X16973D2*
X19736D1*
X21840D2*
X23333D1*
X24286D2*
X26404D1*
X4350Y18197D2*
X10048D1*
X10829D2*
X16282D1*
X16973D2*
X20958D1*
X21954D2*
X23579D1*
X24536D2*
X26404D1*
X4350Y17948D2*
X9154D1*
X10973D2*
X16282D1*
X16973D2*
X21029D1*
X22204D2*
X23829D1*
X24786D2*
X26404D1*
X4350Y17700D2*
X4739D1*
X5891D2*
X6083D1*
X6547D2*
X9154D1*
X11098D2*
X16282D1*
X16973D2*
X21497D1*
X22454D2*
X24079D1*
X25032D2*
X26404D1*
X4350Y17451D2*
X4739D1*
X8793D2*
X9154D1*
X11344D2*
X16282D1*
X16973D2*
X21747D1*
X22700D2*
X24325D1*
X25282D2*
X26404D1*
X4350Y17202D2*
X4739D1*
X8793D2*
X9154D1*
X11594D2*
X16282D1*
X16973D2*
X21993D1*
X22950D2*
X24575D1*
X25532D2*
X26404D1*
X4350Y16954D2*
X4603D1*
X8793D2*
X10759D1*
X11844D2*
X16282D1*
X16973D2*
X22243D1*
X23200D2*
X24825D1*
X25778D2*
X26404D1*
X6598Y16705D2*
X7837D1*
X8903D2*
X11009D1*
X12090D2*
X15349D1*
X16973D2*
X22493D1*
X23446D2*
X25071D1*
X26028D2*
X26404D1*
X6821Y16456D2*
X7837D1*
X9332D2*
X11259D1*
X14504D2*
X15239D1*
X16973D2*
X20650D1*
X21329D2*
X22739D1*
X23645D2*
X25321D1*
X26250D2*
X26407D1*
X6891Y16208D2*
X7837D1*
X9418D2*
X11239D1*
X14754D2*
X15259D1*
X16973D2*
X20517D1*
X21461D2*
X22970D1*
X23661D2*
X25571D1*
X26286D2*
X26404D1*
X9356Y15959D2*
X10982D1*
X15262D2*
X15375D1*
X16973D2*
X20544D1*
X21700D2*
X22970D1*
X23661D2*
X25595D1*
X26286D2*
X26404D1*
X4723Y15710D2*
X5021D1*
X9223D2*
X10587D1*
X16973D2*
X19114D1*
X20266D2*
X20786D1*
X22723D2*
X22907D1*
X23723D2*
X23907D1*
X24723D2*
X25595D1*
X26286D2*
X26404D1*
X4723Y15461D2*
X4810D1*
X9223D2*
X10587D1*
X16973D2*
X19114D1*
X20266D2*
X21114D1*
X24871D2*
X25595D1*
X26286D2*
X26404D1*
X5891Y15213D2*
X7236D1*
X9223D2*
X10587D1*
X16973D2*
X19114D1*
X20270D2*
X21302D1*
X24879D2*
X25595D1*
X26286D2*
X26404D1*
X5840Y14964D2*
X6986D1*
X9129D2*
X10587D1*
X12356D2*
X13751D1*
X16879D2*
X19114D1*
X20520D2*
X21302D1*
X23762D2*
X23868D1*
X24762D2*
X25595D1*
X26286D2*
X26404D1*
X4723Y14715D2*
X5013D1*
X5618D2*
X6736D1*
X9114D2*
X10587D1*
X12356D2*
X14001D1*
X16629D2*
X19286D1*
X20766D2*
X21302D1*
X23719D2*
X23911D1*
X24719D2*
X25595D1*
X26286D2*
X26404D1*
X4723Y14467D2*
X6595D1*
X7442D2*
X7767D1*
X9114D2*
X10587D1*
X12356D2*
X12677D1*
X16383D2*
X19138D1*
X21016D2*
X21302D1*
X24868D2*
X25595D1*
X26286D2*
X26404D1*
X4723Y14218D2*
X6595D1*
X7286D2*
X7767D1*
X9114D2*
X11122D1*
X12223D2*
X12427D1*
X24883D2*
X25595D1*
X26286D2*
X26404D1*
X4723Y13969D2*
X6595D1*
X7286D2*
X7767D1*
X9114D2*
X11220D1*
X13133D2*
X13595D1*
X24770D2*
X25595D1*
X26286D2*
X26404D1*
X4723Y13721D2*
X6595D1*
X7286D2*
X7767D1*
X9114D2*
X9400D1*
X10352D2*
X11220D1*
X22079D2*
X22372D1*
X26286D2*
X26404D1*
X4723Y13472D2*
X6595D1*
X7286D2*
X7767D1*
X10352D2*
X11181D1*
X20786D2*
X20869D1*
X22079D2*
X22618D1*
X26286D2*
X26404D1*
X4723Y13223D2*
X5154D1*
X5477D2*
X6595D1*
X7286D2*
X7767D1*
X10383D2*
X10935D1*
X20786D2*
X20869D1*
X22079D2*
X22868D1*
X26286D2*
X26404D1*
X4723Y12975D2*
X4818D1*
X7286D2*
X7767D1*
X10582D2*
X10685D1*
X20786D2*
X20869D1*
X22079D2*
X23118D1*
X24200D2*
X24489D1*
X26286D2*
X26404D1*
X7286Y12726D2*
X7767D1*
X9114D2*
X9400D1*
X17504D2*
X18489D1*
X20786D2*
X20869D1*
X26286D2*
X26404D1*
X7286Y12477D2*
X7767D1*
X9114D2*
X9400D1*
X17754D2*
X18736D1*
X20786D2*
X20869D1*
X26286D2*
X26404D1*
X4723Y12229D2*
X4989D1*
X5641D2*
X6087D1*
X7286D2*
X7767D1*
X9114D2*
X9400D1*
X18004D2*
X18845D1*
X20786D2*
X20869D1*
X23598D2*
X23861D1*
X26286D2*
X26404D1*
X4723Y11980D2*
X4821D1*
X7286D2*
X9907D1*
X11223D2*
X11548D1*
X18250D2*
X18845D1*
X20786D2*
X20869D1*
X23598D2*
X23939D1*
X26286D2*
X26404D1*
X7286Y11731D2*
X9400D1*
X11223D2*
X11747D1*
X14004D2*
X15169D1*
X18500D2*
X18622D1*
X23598D2*
X23689D1*
X26286D2*
X26404D1*
X6504Y11482D2*
X6596D1*
X7286D2*
X9400D1*
X11223D2*
X12169D1*
X14004D2*
X15169D1*
X22539D2*
X23443D1*
X24524D2*
X24628D1*
X26286D2*
X26404D1*
X4723Y11234D2*
X4982D1*
X5649D2*
X6595D1*
X7286D2*
X9400D1*
X11223D2*
X12419D1*
X14004D2*
X15169D1*
X21559D2*
X21732D1*
X22579D2*
X23193D1*
X24274D2*
X24630D1*
X26286D2*
X26404D1*
X4723Y10985D2*
X4825D1*
X7286D2*
X9341D1*
X11223D2*
X12478D1*
X14004D2*
X15169D1*
X21559D2*
X21802D1*
X22579D2*
X22943D1*
X24028D2*
X24630D1*
X26286D2*
X26404D1*
X7286Y10736D2*
X7767D1*
X14004D2*
X14880D1*
X21559D2*
X21802D1*
X22579D2*
X22802D1*
X23778D2*
X24630D1*
X26286D2*
X26404D1*
X7286Y10488D2*
X7767D1*
X14004D2*
X14775D1*
X26286D2*
X26404D1*
X4723Y10239D2*
X4974D1*
X5657D2*
X6087D1*
X7286D2*
X7767D1*
X14004D2*
X14818D1*
X20786D2*
X20869D1*
X26286D2*
X26404D1*
X4723Y9990D2*
X6087D1*
X7286D2*
X7767D1*
X9270D2*
X9532D1*
X14989D2*
X15164D1*
X15339D2*
X15419D1*
X20786D2*
X21118D1*
X24219D2*
X24630D1*
X26286D2*
X26404D1*
X4723Y9742D2*
X6087D1*
X7286D2*
X7767D1*
X9114D2*
X9532D1*
X10680D2*
X10923D1*
X21063D2*
X21290D1*
X24086D2*
X24630D1*
X26286D2*
X26404D1*
X4805Y9493D2*
X6595D1*
X7286D2*
X7767D1*
X24086D2*
X24630D1*
X26286D2*
X26404D1*
X5051Y9244D2*
X6595D1*
X7364D2*
X7767D1*
X24188D2*
X24630D1*
X26286D2*
X26404D1*
X7614Y8996D2*
X7767D1*
X26286D2*
X26404D1*
X4350Y8747D2*
X4595D1*
X26286D2*
X26404D1*
X4350Y8498D2*
X4943D1*
X9848D2*
X10208D1*
X12985D2*
X13341D1*
X26286D2*
X26404D1*
X4350Y8250D2*
X5978D1*
X9848D2*
X9935D1*
X21219D2*
X21802D1*
X23547D2*
X25345D1*
X26286D2*
X26404D1*
X4350Y8001D2*
X6095D1*
X6786D2*
X7216D1*
X12418D2*
X12524D1*
X17911D2*
X19595D1*
X21219D2*
X21661D1*
X22590D2*
X22716D1*
X23793D2*
X25345D1*
X26286D2*
X26404D1*
X4350Y7752D2*
X6095D1*
X6786D2*
X7466D1*
X10731D2*
X12853D1*
X14399D2*
X14845D1*
X17911D2*
X19595D1*
X21219D2*
X21665D1*
X22586D2*
X22962D1*
X24090D2*
X25345D1*
X26286D2*
X26404D1*
X4350Y7503D2*
X6095D1*
X6786D2*
X7962D1*
X10914D2*
X15150D1*
X17911D2*
X19595D1*
X21219D2*
X21845D1*
X22407D2*
X23212D1*
X26286D2*
X26404D1*
X4350Y7255D2*
X6095D1*
X6786D2*
X7712D1*
X11164D2*
X14904D1*
X18102D2*
X19595D1*
X21219D2*
X23458D1*
X26278D2*
X26403D1*
X4350Y7006D2*
X6095D1*
X6786D2*
X7497D1*
X8418D2*
X8845D1*
X11414D2*
X14657D1*
X18352D2*
X19595D1*
X21352D2*
X23579D1*
X26110D2*
X26404D1*
X4350Y6757D2*
X6095D1*
X6786D2*
X7470D1*
X12914D2*
X13966D1*
X18914D2*
X19595D1*
X22914D2*
X23591D1*
X25801D2*
X26404D1*
X4350Y6509D2*
X4665D1*
X6973D2*
X7470D1*
X13012D2*
X13868D1*
X19012D2*
X19595D1*
X23012D2*
X23341D1*
X26215D2*
X26404D1*
X7223Y6260D2*
X7470D1*
X12985D2*
X13896D1*
X18985D2*
X19595D1*
X7442Y6011D2*
X7528D1*
X11809D2*
X12071D1*
X12809D2*
X14071D1*
X18809D2*
X19595D1*
X7473Y5763D2*
X7767D1*
X12911D2*
X13970D1*
X7473Y5514D2*
X7864D1*
X13008D2*
X13868D1*
X23008D2*
X23349D1*
X7473Y5265D2*
X7864D1*
X12985D2*
X13892D1*
X22985D2*
X23104D1*
X6700Y5017D2*
X6802D1*
X9817D2*
X10064D1*
X10817D2*
X11064D1*
X11817D2*
X12064D1*
X12817D2*
X14064D1*
X23805D2*
X24181D1*
X6586Y4768D2*
X7013D1*
X9618D2*
X14946D1*
X20930D2*
X21634D1*
X23559D2*
X24294D1*
X4350Y4519D2*
X4489D1*
X6391D2*
X7259D1*
X9368D2*
X21884D1*
X23309D2*
X24489D1*
X9550Y13725D2*
X10329D1*
Y13252D1*
X10478Y13105D1*
X10547Y13001D1*
X10572Y12878D1*
Y12835D1*
X11244Y13509D1*
X11245Y14124D1*
X11017Y14343D1*
X10613D1*
X10617Y15287D1*
X10613Y15388D1*
Y15956D1*
X11000D1*
X11213Y16167D1*
X11316Y16236D1*
X11439Y16260D1*
X11482D1*
X10723Y17015D1*
X9927Y17019D1*
X9876Y17015D1*
X9179D1*
Y18115D1*
X10072D1*
X10073Y18553D1*
X9837Y18551D1*
X9344D1*
Y19454D1*
X10956D1*
Y18551D1*
X10804D1*
X10803Y18116D1*
X10949Y18115D1*
Y17822D1*
X12089Y16682D1*
X14104Y16680D1*
X14227Y16659D1*
X14346Y16588D1*
X14796Y16139D1*
X14861Y16140D1*
X14983Y16118D1*
X15098Y16070D1*
X15200Y15997D1*
X15282Y15903D1*
X15316Y15838D1*
X15395Y15953D1*
X15421Y15977D1*
X15368Y16040D1*
X15305Y16148D1*
X15268Y16267D1*
X15259Y16392D1*
X15278Y16515D1*
X15324Y16631D1*
X15395Y16733D1*
X15487Y16817D1*
X15596Y16878D1*
X15716Y16913D1*
X15841Y16920D1*
X15963Y16898D1*
X16078Y16850D1*
X16180Y16777D1*
X16262Y16683D1*
X16289Y16631D1*
X16307Y16690D1*
Y19565D1*
X16332Y19687D1*
X16401Y19791D1*
X17714Y21104D1*
X17817Y21173D1*
X17940Y21198D1*
X22815D1*
X22937Y21173D1*
X23041Y21104D1*
X23541Y20604D1*
X23610Y20501D1*
X23635Y20378D1*
Y19877D1*
X23611Y19756D1*
X23541Y19651D1*
X23301Y19411D1*
X23663Y19045D1*
X26166Y16541D1*
X26235Y16438D1*
X26260Y16315D1*
Y7315D1*
X26236Y7193D1*
X26166Y7089D1*
X25916Y6839D1*
X25813Y6770D1*
X25690Y6745D1*
X25534Y6743D1*
X25780Y6701D1*
X26014Y6614D1*
X26227Y6483D1*
X26411Y6314D1*
X26428Y6293D1*
X26430Y8200D1*
Y19587D1*
X26291Y19449D1*
X26087Y19305D1*
X25859Y19203D1*
X25616Y19146D1*
X25367Y19136D1*
X25120Y19173D1*
X24885Y19257D1*
X24670Y19385D1*
X24484Y19550D1*
X24332Y19748D1*
X24220Y19972D1*
X24154Y20212D1*
X24134Y20461D1*
X24162Y20709D1*
X24236Y20947D1*
X24355Y21167D1*
X24513Y21360D1*
X24591Y21431D1*
X16680Y21430D1*
X6293D1*
X6411Y21314D1*
X6559Y21114D1*
X6667Y20888D1*
X6730Y20647D1*
X6746Y20440D1*
X6722Y20192D1*
X6652Y19952D1*
X6537Y19731D1*
X6382Y19535D1*
X6193Y19372D1*
X5976Y19249D1*
X5739Y19168D1*
X5492Y19135D1*
X5243Y19149D1*
X5001Y19210D1*
X4775Y19316D1*
X4573Y19463D1*
X4403Y19646D1*
X4326Y19759D1*
X4325Y16653D1*
X4767Y17095D1*
X4765Y17740D1*
X5865D1*
Y17510D1*
X5994Y17637D1*
X6103Y17698D1*
X6222Y17732D1*
X6347Y17739D1*
X6470Y17718D1*
X6585Y17670D1*
X6686Y17597D1*
X6760Y17511D1*
X7866Y17510D1*
X7863Y17662D1*
X8767D1*
Y16801D1*
X8836Y16747D1*
X8938Y16645D1*
X9045Y16633D1*
X9161Y16588D1*
X9260Y16513D1*
X9336Y16414D1*
X9382Y16298D1*
X9395Y16190D1*
X9378Y16067D1*
X9328Y15953D1*
X9249Y15856D1*
X9194Y15819D1*
X9197Y15191D1*
X9173Y15069D1*
X9103Y14964D1*
X8853Y14715D1*
X9088Y14716D1*
Y13571D1*
X9428Y13573D1*
X9425Y13725D1*
X9550D1*
X9426Y12782D2*
X9425Y12934D1*
X9092Y12933D1*
X9088Y12091D1*
Y12041D1*
X7791D1*
Y14683D1*
X7633D1*
X7262Y14310D1*
X7260Y12190D1*
Y9327D1*
X7793Y8790D1*
X7791Y10175D1*
Y10976D1*
X9088D1*
Y10737D1*
X9266Y10917D1*
X9370Y10986D1*
X9425Y11014D1*
Y11832D1*
X9932D1*
X9929Y12112D1*
X9425D1*
Y12912D1*
X13212Y13898D2*
X13622D1*
X13621Y13944D1*
X13565Y14058D1*
X13194D1*
X13043Y13898D1*
X13361Y13897D1*
X12047Y11640D2*
X11772D1*
Y11815D1*
X11668Y11885D1*
X11566Y11987D1*
X11407Y12014D1*
X11297Y12072D1*
X11198Y12175D1*
X11197Y10881D1*
X12065Y10885D1*
X12374D1*
X12398Y10913D1*
X12501Y10984D1*
X12627Y11010D1*
X12717D1*
X12588Y11090D1*
X12089Y11589D1*
X12329Y15165D2*
Y14343D1*
X12200D1*
X12197Y13960D1*
X12839Y14604D1*
X12942Y14673D1*
X13065Y14698D1*
X14045D1*
X13573Y15167D1*
X12329Y15164D1*
X12325Y15013D1*
X15159Y9780D2*
X15238Y9776D1*
X15346Y9780D1*
X15553Y9776D1*
X15661Y9780D1*
X15868Y9776D1*
X15976Y9780D1*
X16104D1*
X16106Y9907D1*
X16021Y9848D1*
X15903Y9807D1*
X15779Y9800D1*
X15657Y9827D1*
X15547Y9885D1*
X15457Y9971D1*
X15427Y10022D1*
X15341Y9995D1*
X15216Y9987D1*
X15094Y10014D1*
X14985Y10073D1*
X14895Y10159D1*
X14831Y10266D1*
X14800Y10387D1*
X14802Y10511D1*
X14838Y10631D1*
X14905Y10736D1*
X14998Y10819D1*
X15110Y10873D1*
X15198Y10889D1*
X15195Y11829D1*
Y11911D1*
X14928Y11907D1*
X14846Y11911D1*
X14738Y11907D1*
X14531Y11911D1*
X14423Y11907D1*
X14216Y11911D1*
X14108Y11907D1*
X13981D1*
X13978Y11278D1*
Y10333D1*
Y10059D1*
X14764Y10061D1*
X14886Y10037D1*
X14990Y9967D1*
X15102Y9855D1*
X15161Y9780D1*
X15791Y9778D1*
X16108Y9780D1*
X15195Y11907D2*
X15161Y11911D1*
X14923Y11909D1*
X14608D1*
X14293D1*
X13977Y11907D1*
X13975Y11592D1*
X13978Y11169D1*
X13975Y10963D1*
X13977Y10725D1*
Y10410D1*
X13978Y10062D1*
X9088Y9831D2*
Y9480D1*
X9213Y9605D1*
X9317Y9674D1*
X9440Y9699D1*
X9561D1*
X9557Y10218D1*
X9454Y10200D1*
X9086Y9832D1*
X6761Y16873D2*
X6653Y16756D1*
X6543Y16690D1*
X6686Y16597D1*
X6768Y16503D1*
X6827Y16393D1*
X6859Y16272D1*
X6865Y16190D1*
X6851Y16066D1*
X6832Y16011D1*
X7241Y16010D1*
X7311Y16068D1*
X7423Y16122D1*
X7546Y16145D1*
X7670Y16133D1*
X7786Y16088D1*
X7888Y16010D1*
X7892Y16049D1*
X7863D1*
Y16871D1*
X6764Y16870D1*
X5090Y15691D2*
X4960Y15769D1*
X4875Y15860D1*
X4812Y15968D1*
X4774Y16087D1*
X4767Y16192D1*
X4699Y16121D1*
X4698Y9577D1*
X5137Y9134D1*
X6624Y9136D1*
X6620Y9547D1*
X6113Y9549D1*
Y10371D1*
X5764Y10370D1*
X5653Y10256D1*
X5547Y10191D1*
X5429Y10152D1*
X5304Y10140D1*
X5181Y10156D1*
X5064Y10200D1*
X4960Y10269D1*
X4875Y10360D1*
X4812Y10468D1*
X4774Y10587D1*
X4765Y10711D1*
X4784Y10835D1*
X4830Y10950D1*
X4901Y11053D1*
X4994Y11137D1*
X5086Y11188D1*
X4960Y11269D1*
X4875Y11360D1*
X4812Y11468D1*
X4774Y11587D1*
X4765Y11711D1*
X4784Y11835D1*
X4830Y11950D1*
X4901Y12053D1*
X4994Y12137D1*
X5086Y12188D1*
X4960Y12269D1*
X4875Y12360D1*
X4812Y12468D1*
X4774Y12587D1*
X4765Y12711D1*
X4784Y12835D1*
X4830Y12950D1*
X4901Y13053D1*
X4994Y13137D1*
X5103Y13198D1*
X5222Y13232D1*
X5347Y13239D1*
X5470Y13218D1*
X5585Y13170D1*
X5686Y13097D1*
X5760Y13011D1*
X6116Y13010D1*
X6113Y13162D1*
X6617D1*
X6620Y13940D1*
Y14441D1*
X6644Y14562D1*
X6714Y14667D1*
X7276Y15229D1*
X7298Y15322D1*
X7244Y15373D1*
X6190Y15370D1*
X5944D1*
X5856Y15279D1*
X5865Y15190D1*
X5851Y15066D1*
X5809Y14949D1*
X5742Y14843D1*
X5653Y14756D1*
X5547Y14691D1*
X5429Y14652D1*
X5304Y14640D1*
X5181Y14656D1*
X5064Y14700D1*
X4960Y14769D1*
X4875Y14860D1*
X4812Y14968D1*
X4774Y15087D1*
X4765Y15211D1*
X4784Y15335D1*
X4830Y15450D1*
X4901Y15553D1*
X4994Y15637D1*
X5086Y15688D1*
X5538Y11189D2*
X5585Y11170D1*
X5686Y11097D1*
X5760Y11011D1*
X6116Y11010D1*
X6113Y11162D1*
X6617D1*
X6620Y11546D1*
X6526Y11529D1*
X6461Y11464D1*
X6357Y11395D1*
X6234Y11370D1*
X5762D1*
X5653Y11256D1*
X5543Y11190D1*
X5538Y12189D2*
X5585Y12170D1*
X5686Y12097D1*
X5760Y12011D1*
X6100Y12010D1*
X6113Y12049D1*
Y12371D1*
X5764Y12370D1*
X5653Y12256D1*
X5543Y12190D1*
X21532Y10589D2*
X21829D1*
X21825Y11163D1*
X21531Y11457D1*
X21533Y10585D1*
X21317Y9428D2*
Y9819D1*
X20835Y10298D1*
X20763Y10299D1*
X20760Y9756D1*
X20857Y9771D1*
X20981Y9759D1*
X21097Y9714D1*
X21197Y9639D1*
X21272Y9540D1*
X21316Y9428D1*
X22552Y10589D2*
X22563Y10585D1*
X22617Y10589D1*
X22829D1*
X22825Y10690D1*
X22846Y10813D1*
X22917Y10932D1*
X24051Y12067D1*
X23576Y12540D1*
X23575Y11654D1*
X22368D1*
X22448Y11573D1*
X22520Y11471D1*
X22554Y11337D1*
X22555Y10592D1*
X23602Y10589D2*
X23883D1*
X23979Y10649D1*
X24105Y10675D1*
X24654Y10678D1*
Y11496D1*
X25368D1*
X25364Y11555D1*
X24573D1*
X23606Y10590D1*
X24063Y9858D2*
Y9389D1*
X24162Y9392D1*
Y9052D1*
X24654Y9053D1*
Y9871D1*
X25368D1*
X25307Y9884D1*
X24654D1*
Y10036D1*
X24234Y10035D1*
X24064Y9861D1*
X22080Y12951D2*
X23159Y12957D1*
X22350Y13766D1*
X22057Y13765D1*
X22055Y12951D1*
X22080D1*
X21822Y8488D2*
X21197D1*
X21196Y7140D1*
X21348Y6985D1*
X21472Y6989D1*
X21595Y6968D1*
X21710Y6920D1*
X21811Y6847D1*
X21893Y6753D1*
X21939Y6667D1*
X22026Y6803D1*
X22119Y6887D1*
X22228Y6948D1*
X22347Y6982D1*
X22472Y6989D1*
X22595Y6968D1*
X22710Y6920D1*
X22811Y6847D1*
X22893Y6753D1*
X22952Y6643D1*
X22984Y6522D1*
X22990Y6440D1*
X22976Y6316D1*
X22957Y6261D1*
X23122Y6262D1*
X23756Y6900D1*
X23673Y6947D1*
X23583Y7033D1*
X23520Y7140D1*
X23491Y7249D1*
X22763Y7976D1*
X22691Y8078D1*
X22656Y8213D1*
Y8488D1*
X22553D1*
X22555Y8031D1*
X22581Y7879D1*
X22564Y7755D1*
X22514Y7641D1*
X22435Y7545D1*
X22333Y7474D1*
X22215Y7433D1*
X22090Y7425D1*
X21969Y7452D1*
X21859Y7510D1*
X21769Y7597D1*
X21706Y7704D1*
X21674Y7825D1*
X21676Y7949D1*
X21712Y8068D1*
X21779Y8174D1*
X21823Y8212D1*
X21825Y8486D1*
X21638Y8492D1*
X20759Y11912D2*
X20894D1*
X20893Y13658D1*
X20238Y14314D1*
X20270Y14188D1*
X20666Y13791D1*
X20735Y13688D1*
X20760Y13565D1*
Y11913D1*
X23689Y8488D2*
X23384D1*
X23386Y8381D1*
X24005Y7766D1*
X24161Y7713D1*
X24261Y7638D1*
X24336Y7539D1*
X24352Y7499D1*
X24499Y7610D1*
X24625Y7636D1*
X25372D1*
X25368Y8191D1*
Y8258D1*
X24654Y8259D1*
Y8411D1*
X23900Y8410D1*
X23778Y8435D1*
X21927Y15701D2*
X21994Y15762D1*
X22103Y15823D1*
X22222Y15857D1*
X22347Y15864D1*
X22470Y15843D1*
X22585Y15795D1*
X22686Y15722D1*
X22768Y15628D1*
X22814Y15542D1*
X22901Y15678D1*
X22997Y15764D1*
X22995Y16225D1*
X21484Y17738D1*
X21403Y17737D1*
X21281Y17763D1*
X21171Y17822D1*
X21081Y17908D1*
X21018Y18015D1*
X20987Y18136D1*
X20988Y18233D1*
X20901Y18320D1*
X20428Y18323D1*
X19759D1*
Y19226D1*
X19911D1*
X19910Y19638D1*
X19680Y19641D1*
Y20559D1*
X18069Y20558D1*
X16948Y19433D1*
X16947Y15190D1*
X16923Y15068D1*
X16854Y14964D1*
X16337Y14447D1*
X19065D1*
X19159Y14460D1*
X19205Y14575D1*
X19276Y14678D1*
X19372Y14764D1*
X19140Y14765D1*
Y15865D1*
X20240D1*
Y15221D1*
X21154Y14304D1*
X21328Y14130D1*
X21325Y15280D1*
X20926Y15675D1*
X20833Y15700D1*
X20724Y15759D1*
X20634Y15845D1*
X20570Y15953D1*
X20539Y16073D1*
X20541Y16198D1*
X20577Y16317D1*
X20644Y16422D1*
X20737Y16505D1*
X20849Y16560D1*
X20971Y16582D1*
X21095Y16570D1*
X21212Y16525D1*
X21311Y16450D1*
X21387Y16351D1*
X21433Y16235D1*
X21437Y16198D1*
X21930Y15704D1*
X23538Y14814D2*
X23585Y14795D1*
X23686Y14722D1*
X23768Y14628D1*
X23814Y14542D1*
X23901Y14678D1*
X23994Y14762D1*
X24086Y14813D1*
X23960Y14894D1*
X23875Y14985D1*
X23814Y15089D1*
X23742Y14968D1*
X23653Y14881D1*
X23543Y14815D1*
X23632Y15760D2*
X23686Y15722D1*
X23768Y15628D1*
X23814Y15542D1*
X23901Y15678D1*
X23994Y15762D1*
X24103Y15823D1*
X24222Y15857D1*
X24347Y15864D1*
X24470Y15843D1*
X24585Y15795D1*
X24686Y15722D1*
X24768Y15628D1*
X24827Y15518D1*
X24859Y15397D1*
X24865Y15315D1*
X24851Y15191D1*
X24809Y15074D1*
X24742Y14968D1*
X24653Y14881D1*
X24543Y14815D1*
X24686Y14722D1*
X24768Y14628D1*
X24827Y14518D1*
X24859Y14397D1*
X24865Y14315D1*
X24851Y14191D1*
X24809Y14074D1*
X24742Y13968D1*
X24653Y13881D1*
X24557Y13822D1*
X25313Y13823D1*
X25435Y13799D1*
X25539Y13730D1*
X25619Y13649D1*
X25620Y16186D1*
X24300Y17503D1*
X23032Y18771D1*
X22992Y18718D1*
X22903Y18631D1*
X22797Y18566D1*
X22679Y18527D1*
X22554Y18515D1*
X22431Y18531D1*
X22314Y18575D1*
X22210Y18644D1*
X22125Y18735D1*
X22062Y18843D1*
X22024Y18962D1*
X22015Y19086D1*
X22034Y19210D1*
X22080Y19325D1*
X22151Y19428D1*
X22247Y19514D1*
X22015Y19515D1*
Y19745D1*
X21450Y19741D1*
Y19641D1*
X20550D1*
X20553Y19226D1*
X21371D1*
Y18754D1*
X21482Y18645D1*
X21543Y18633D1*
X21659Y18588D1*
X21759Y18513D1*
X21835Y18414D1*
X21880Y18298D1*
X21887Y18241D1*
X23541Y16586D1*
X23610Y16482D1*
X23635Y16359D1*
Y15762D1*
X24514Y12634D2*
Y13184D1*
X24127Y13183D1*
X24005Y13207D1*
X23900Y13277D1*
X23406Y13771D1*
X23457Y13691D1*
X24515Y12633D1*
X12393Y8163D2*
Y7802D1*
X11450Y7806D1*
X11399Y7802D1*
X10781D1*
Y7856D1*
X10699Y7748D1*
X10781Y7615D1*
X11408Y6988D1*
X11472Y6989D1*
X11595Y6968D1*
X11710Y6920D1*
X11811Y6847D1*
X11893Y6753D1*
X11939Y6667D1*
X12026Y6803D1*
X12119Y6887D1*
X12228Y6948D1*
X12347Y6982D1*
X12472Y6989D1*
X12595Y6968D1*
X12710Y6920D1*
X12811Y6847D1*
X12893Y6753D1*
X12952Y6643D1*
X12984Y6522D1*
X12990Y6440D1*
X12976Y6316D1*
X12934Y6199D1*
X12867Y6093D1*
X12778Y6006D1*
X12668Y5940D1*
X12811Y5847D1*
X12893Y5753D1*
X12952Y5643D1*
X12984Y5522D1*
X12990Y5440D1*
X12976Y5316D1*
X12934Y5199D1*
X12867Y5093D1*
X12778Y5006D1*
X12672Y4941D1*
X12554Y4902D1*
X12429Y4890D1*
X12306Y4906D1*
X12189Y4950D1*
X12085Y5019D1*
X12000Y5110D1*
X11939Y5214D1*
X11867Y5093D1*
X11778Y5006D1*
X11672Y4941D1*
X11554Y4902D1*
X11429Y4890D1*
X11306Y4906D1*
X11189Y4950D1*
X11085Y5019D1*
X11000Y5110D1*
X10939Y5214D1*
X10867Y5093D1*
X10778Y5006D1*
X10672Y4941D1*
X10554Y4902D1*
X10429Y4890D1*
X10306Y4906D1*
X10189Y4950D1*
X10085Y5019D1*
X10000Y5110D1*
X9939Y5214D1*
X9867Y5093D1*
X9748Y4988D1*
X9737Y4949D1*
X9666Y4841D1*
X9353Y4528D1*
X9250Y4459D1*
X9127Y4434D1*
X7502D1*
X7380Y4458D1*
X7276Y4528D1*
X6901Y4903D1*
X6832Y5006D1*
X6807Y5129D1*
Y5750D1*
X6704Y5769D1*
X6744Y5523D1*
X6740Y5315D1*
X6693Y5070D1*
X6600Y4839D1*
X6464Y4629D1*
X6291Y4449D1*
X6117Y4324D1*
X24759Y4325D1*
X24573Y4463D1*
X24403Y4646D1*
X24271Y4857D1*
X24181Y5090D1*
X24138Y5336D1*
X24136Y5379D1*
X24015Y5250D1*
X23291Y4526D1*
X23188Y4457D1*
X23065Y4433D1*
X22127D1*
X22006Y4457D1*
X21901Y4526D1*
X21528Y4899D1*
X21429Y4890D1*
X21306Y4906D1*
X21189Y4950D1*
X21127Y4991D1*
X20852Y4715D1*
X20749Y4646D1*
X20626Y4622D1*
X15251D1*
X15130Y4646D1*
X15025Y4715D1*
X14753Y4988D1*
X14672Y4941D1*
X14554Y4902D1*
X14429Y4890D1*
X14306Y4906D1*
X14189Y4950D1*
X14085Y5019D1*
X14000Y5110D1*
X13937Y5218D1*
X13899Y5337D1*
X13890Y5461D1*
X13909Y5585D1*
X13955Y5700D1*
X14026Y5803D1*
X14119Y5887D1*
X14211Y5938D1*
X14085Y6019D1*
X14000Y6110D1*
X13937Y6218D1*
X13899Y6337D1*
X13890Y6461D1*
X13909Y6585D1*
X13955Y6700D1*
X14026Y6803D1*
X14119Y6887D1*
X14228Y6948D1*
X14347Y6982D1*
X14472Y6989D1*
X14595Y6968D1*
X14649Y6945D1*
X14714Y7041D1*
X15181Y7508D1*
X15182Y7678D1*
X15092Y7674D1*
X14970Y7700D1*
X14861Y7759D1*
X14771Y7845D1*
X14707Y7953D1*
X14697Y7994D1*
X14540Y7840D1*
X14437Y7771D1*
X14314Y7746D1*
X12939D1*
X12817Y7770D1*
X12713Y7840D1*
X12395Y8158D1*
X10946Y9573D2*
Y9932D1*
X10877Y9933D1*
X10756Y9957D1*
X10651Y10026D1*
X10571Y10106D1*
X10572Y9820D1*
X10824Y9572D1*
X10943Y9574D1*
X21450Y20558D2*
Y20386D1*
X22015Y20390D1*
Y20556D1*
X21452Y20558D1*
X7890Y5073D2*
Y5675D1*
X7750Y5804D1*
X7588Y5965D1*
X7519Y6068D1*
X7495Y6191D1*
Y6879D1*
X7519Y7001D1*
X7588Y7105D1*
X8166Y7682D1*
X7690Y7684D1*
X7568Y7708D1*
X7463Y7778D1*
X6892Y8349D1*
X6878Y8255D1*
X6828Y8141D1*
X6761Y8060D1*
X6760Y6695D1*
X7354Y6105D1*
X7423Y6002D1*
X7447Y5879D1*
Y5258D1*
X7633Y5076D1*
X7889Y5074D1*
X8375Y6984D2*
X8472Y6989D1*
X8595Y6968D1*
X8710Y6920D1*
X8811Y6847D1*
X8870Y6779D1*
Y7085D1*
X8780Y7058D1*
X8656Y7050D1*
X8534Y7077D1*
X8490Y7101D1*
X8376Y6988D1*
X11663Y5939D2*
X11710Y5920D1*
X11811Y5847D1*
X11893Y5753D1*
X11939Y5667D1*
X12026Y5803D1*
X12119Y5887D1*
X12211Y5938D1*
X12085Y6019D1*
X12000Y6110D1*
X11939Y6214D1*
X11867Y6093D1*
X11778Y6006D1*
X11668Y5940D1*
X18663Y5939D2*
X18710Y5920D1*
X18811Y5847D1*
X18893Y5753D1*
X18939Y5667D1*
X19026Y5803D1*
X19119Y5887D1*
X19228Y5948D1*
X19347Y5982D1*
X19472Y5989D1*
X19620Y5957D1*
Y8085D1*
X19529Y8056D1*
X19405Y8049D1*
X19283Y8075D1*
X19173Y8134D1*
X19083Y8220D1*
X19019Y8331D1*
X18935Y8232D1*
X18833Y8161D1*
X18715Y8120D1*
X18591Y8113D1*
X18469Y8139D1*
X18345Y8211D1*
X18271Y8161D1*
X18153Y8120D1*
X18028Y8113D1*
X17883Y8152D1*
X17885Y7444D1*
X18352Y6981D1*
X18472Y6989D1*
X18595Y6968D1*
X18710Y6920D1*
X18811Y6847D1*
X18893Y6753D1*
X18952Y6643D1*
X18984Y6522D1*
X18990Y6440D1*
X18976Y6316D1*
X18934Y6199D1*
X18867Y6093D1*
X18778Y6006D1*
X18668Y5940D1*
X22976Y5316D2*
X22934Y5199D1*
X22848Y5074D1*
X22936Y5073D1*
X23560Y5700D1*
X23526Y5764D1*
X23477Y5715D1*
X23374Y5646D1*
X23251Y5622D1*
X22958D1*
X22984Y5522D1*
X22990Y5440D1*
X22976Y5316D1*
X4758Y4327D2*
X4573Y4463D1*
X4403Y4646D1*
X4326Y4759D1*
X4325Y4325D1*
X4759D1*
X4325Y6117D2*
X4429Y6267D1*
X4605Y6445D1*
X4811Y6585D1*
X5041Y6684D1*
X5285Y6737D1*
X5534Y6743D1*
X5780Y6701D1*
X6014Y6614D1*
X6120Y6561D1*
Y8055D1*
X6083Y8097D1*
X6020Y8204D1*
X5988Y8324D1*
X5990Y8449D1*
X6005Y8498D1*
X5003Y8496D1*
X4881Y8520D1*
X4776Y8590D1*
X4326Y9040D1*
X4325Y6121D1*
X24197Y5841D2*
X24290Y6060D1*
X24429Y6267D1*
X24605Y6445D1*
X24811Y6585D1*
X25041Y6684D1*
X25285Y6737D1*
X25397Y6745D1*
X24881D1*
X24197Y6057D1*
Y5842D1*
X17572Y12635D2*
X18586Y11621D1*
X18654Y11736D1*
X18747Y11819D1*
X18871Y11875D1*
X18869Y12375D1*
X18429Y12810D1*
X17333Y12808D1*
X17376Y12794D1*
X17484Y12723D1*
X17572Y12635D1*
X9822Y8570D2*
Y8070D1*
X9924Y8082D1*
X9928Y8137D1*
X9964Y8256D1*
X10031Y8362D1*
X10124Y8445D1*
X10240Y8500D1*
X9980Y8761D1*
X9953Y8704D1*
X9874Y8607D1*
X9819Y8569D1*
X12836Y8622D2*
X13074Y8384D1*
X13482Y8386D1*
X13245Y8621D1*
X12834D1*
X9877Y12584D2*
D13*
Y12113D1*
X9426Y12584D2*
X9877D1*
Y11831D2*
Y11360D1*
X9426D2*
X9877D1*
X13389Y11001D2*
X13978D1*
X22690Y10588D2*
Y9940D1*
Y12950D2*
Y11654D1*
Y12302D2*
X23574D1*
X20815Y11911D2*
Y11440D1*
X25105Y9871D2*
Y9400D1*
X24654D2*
X25105D1*
Y11496D2*
Y11025D1*
X24654D2*
X25105D1*
X24514Y12814D2*
X25064D1*
X9690Y18115D2*
Y17015D1*
X9180Y17565D2*
X9690D1*
X9815Y19454D2*
Y18551D1*
X9344Y19003D2*
X9815D1*
X11252Y8254D2*
Y7802D1*
X10947Y9668D2*
X11418D1*
D16*
X9877Y13253D3*
Y12584D3*
Y10691D3*
Y11360D3*
D17*
X13558Y13446D3*
X12889D3*
D16*
X12224Y12111D3*
Y12780D3*
X8355Y15650D3*
Y14980D3*
X11877Y14815D3*
Y15484D3*
X11065Y14815D3*
Y15484D3*
D19*
X13940Y9190D3*
X14255D3*
X14570D3*
X14885D3*
X15200D3*
X15515D3*
X15830D3*
X16145D3*
D20*
X16696Y9741D3*
Y10056D3*
Y10371D3*
Y10686D3*
Y11001D3*
Y11316D3*
Y11631D3*
Y11946D3*
D19*
X16145Y12497D3*
X15830D3*
X15515D3*
X15200D3*
X14885D3*
X14570D3*
X14255D3*
X13940D3*
D20*
X13389Y11946D3*
Y11631D3*
Y11316D3*
Y11001D3*
Y10686D3*
Y10371D3*
Y10056D3*
Y9741D3*
D22*
X8440Y13378D3*
Y9638D3*
D23*
X17689Y17440D3*
X12949D3*
D24*
X15809Y15590D3*
X14829D3*
X15809Y16370D3*
X14829D3*
D25*
X5315Y17190D3*
D24*
X6315D3*
X5315Y16190D3*
X6315D3*
X5315Y15190D3*
X6315D3*
D16*
X8315Y17190D3*
Y16521D3*
D25*
X5315Y9690D3*
D24*
Y10690D3*
Y11690D3*
Y12690D3*
D16*
X6565Y12021D3*
Y12690D3*
Y10690D3*
Y10021D3*
D26*
X21690Y9940D3*
X22190D3*
X22690D3*
X23190D3*
X23690D3*
D27*
X22690Y12302D3*
D17*
X21440Y8940D3*
X22109D3*
D16*
X20815Y11440D3*
Y10771D3*
D17*
X23690Y8940D3*
X23021D3*
D16*
X25105Y9400D3*
Y8730D3*
Y11025D3*
Y10355D3*
D25*
X22315Y14315D3*
D24*
Y15315D3*
X23315Y14315D3*
Y15315D3*
X24315Y14315D3*
Y15315D3*
D28*
X25064Y12066D3*
Y12814D3*
D29*
X10438Y17565D3*
X9690D3*
D17*
X10485Y19003D3*
X9815D3*
X11921Y8254D3*
X11252D3*
X12087Y9668D3*
X11418D3*
D25*
X19690Y15315D3*
D24*
Y14315D3*
D29*
X20939Y20191D3*
X20191D3*
D17*
X20900Y18775D3*
X20230D3*
D25*
X22565Y20065D3*
D24*
Y19065D3*
D25*
X8440Y5440D3*
D24*
Y6440D3*
X9440Y5440D3*
Y6440D3*
X10440Y5440D3*
Y6440D3*
X11440Y5440D3*
Y6440D3*
X12440Y5440D3*
Y6440D3*
X13440Y5440D3*
Y6440D3*
X14440Y5440D3*
Y6440D3*
X15440Y5440D3*
Y6440D3*
X16440Y5440D3*
Y6440D3*
X17440Y5440D3*
Y6440D3*
X18440Y5440D3*
Y6440D3*
X19440Y5440D3*
Y6440D3*
X20440Y5440D3*
Y6440D3*
X21440Y5440D3*
Y6440D3*
X22440Y5440D3*
Y6440D3*
M02*
