G04 DipTrace 2.1.9.5*
%INTopMask.gbr*%
%MOIN*%
%ADD32C,0.12*%
%ADD36C,0.048*%
%ADD38R,0.0592X0.0671*%
%ADD40R,0.0671X0.0592*%
%ADD42R,0.134X0.0867*%
%ADD44R,0.0316X0.0867*%
%ADD46R,0.0671X0.0671*%
%ADD48C,0.0671*%
%ADD50C,0.178*%
%ADD52R,0.0867X0.2245*%
%ADD54R,0.0749X0.0277*%
%ADD56R,0.0277X0.0749*%
%ADD58R,0.0513X0.0474*%
%ADD60R,0.0474X0.0513*%
%FSLAX44Y44*%
%SFA1B1*%
%OFA0B0*%
G04*
G70*
G90*
G75*
G01*
%LNTopMask*%
%LPD*%
D36*
X11564Y12441D3*
X20990Y16128D3*
X22126Y7879D3*
X13002Y8566D3*
X11817Y11001D3*
X18064Y8566D3*
X18626D3*
X6440Y8379D3*
X19001Y8941D3*
X19314Y9629D3*
X8691Y7504D3*
X15814Y10254D3*
X15251Y10441D3*
X9565Y8941D3*
X19001Y11441D3*
X9940Y7628D3*
X19314Y11003D3*
X10377Y8067D3*
X15127Y8128D3*
X20440D3*
X13002Y12253D3*
X20876Y9316D3*
X19815Y8878D3*
X19440Y8503D3*
X8940Y16190D3*
X21438Y18190D3*
X23940Y7315D3*
X13558Y12948D3*
X7565Y15690D3*
X9065Y19003D3*
X8877Y17565D3*
X13940Y19940D3*
X15940D3*
X14440Y17940D3*
X15940D3*
X19440Y17440D3*
X20940D3*
X23440D3*
X24440Y16440D3*
X24940Y18440D3*
X25940D3*
Y17440D3*
X25440Y14940D3*
X24940Y7940D3*
X18065Y7565D3*
X18690D3*
X19315D3*
X14690D3*
X7440Y7690D3*
X4565Y8190D3*
Y7065D3*
X5190Y7440D3*
X10440Y14315D3*
Y13315D3*
X9815Y15315D3*
X10315Y16565D3*
X12565Y14815D3*
X11440Y11565D3*
X14565Y11690D3*
Y10815D3*
X17815Y12690D3*
X18565Y12190D3*
X18190Y19815D3*
X19315D3*
X7065Y21190D3*
X7940D3*
X8815D3*
X9690D3*
X10565D3*
X11565D3*
X7065Y20190D3*
Y19190D3*
X5940Y18690D3*
X4690D3*
X11565Y20190D3*
X18190Y16190D3*
X20815Y12690D3*
X23065Y11440D3*
X22690Y10940D3*
X24315Y13065D3*
X21440Y7690D3*
X13315Y13940D3*
X24565Y11065D3*
X24440Y9440D3*
X10814Y7754D3*
X7627Y5440D3*
X7877Y11503D3*
X8690D3*
X10627Y9941D3*
D60*
X9877Y13253D3*
Y12584D3*
Y10691D3*
Y11360D3*
D58*
X13558Y13446D3*
X12889D3*
D60*
X12224Y12111D3*
Y12780D3*
X8355Y15650D3*
Y14980D3*
X11877Y14815D3*
Y15484D3*
X11065Y14815D3*
Y15484D3*
D56*
X13940Y9190D3*
X14255D3*
X14570D3*
X14885D3*
X15200D3*
X15515D3*
X15830D3*
X16145D3*
D54*
X16696Y9741D3*
Y10056D3*
Y10371D3*
Y10686D3*
Y11001D3*
Y11316D3*
Y11631D3*
Y11946D3*
D56*
X16145Y12497D3*
X15830D3*
X15515D3*
X15200D3*
X14885D3*
X14570D3*
X14255D3*
X13940D3*
D54*
X13389Y11946D3*
Y11631D3*
Y11316D3*
Y11001D3*
Y10686D3*
Y10371D3*
Y10056D3*
Y9741D3*
D52*
X8440Y13378D3*
Y9638D3*
D50*
X17689Y17440D3*
X12949D3*
D48*
X15809Y15590D3*
X14829D3*
X15809Y16370D3*
X14829D3*
D46*
X5315Y17190D3*
D48*
X6315D3*
X5315Y16190D3*
X6315D3*
X5315Y15190D3*
X6315D3*
D60*
X8315Y17190D3*
Y16521D3*
D46*
X5315Y9690D3*
D48*
Y10690D3*
Y11690D3*
Y12690D3*
D60*
X6565Y12021D3*
Y12690D3*
Y10690D3*
Y10021D3*
D44*
X21690Y9940D3*
X22190D3*
X22690D3*
X23190D3*
X23690D3*
D42*
X22690Y12302D3*
D58*
X21440Y8940D3*
X22109D3*
D60*
X20815Y11440D3*
Y10771D3*
D58*
X23690Y8940D3*
X23021D3*
D60*
X25105Y9400D3*
Y8730D3*
Y11025D3*
Y10355D3*
D46*
X22315Y14315D3*
D48*
Y15315D3*
X23315Y14315D3*
Y15315D3*
X24315Y14315D3*
Y15315D3*
D40*
X25064Y12066D3*
Y12814D3*
D38*
X10438Y17565D3*
X9690D3*
D58*
X10485Y19003D3*
X9815D3*
X11921Y8254D3*
X11252D3*
X12087Y9668D3*
X11418D3*
D46*
X19690Y15315D3*
D48*
Y14315D3*
D38*
X20939Y20191D3*
X20191D3*
D58*
X20900Y18775D3*
X20230D3*
D46*
X22565Y20065D3*
D48*
Y19065D3*
D46*
X8440Y5440D3*
D48*
Y6440D3*
X9440Y5440D3*
Y6440D3*
X10440Y5440D3*
Y6440D3*
X11440Y5440D3*
Y6440D3*
X12440Y5440D3*
Y6440D3*
X13440Y5440D3*
Y6440D3*
X14440Y5440D3*
Y6440D3*
X15440Y5440D3*
Y6440D3*
X16440Y5440D3*
Y6440D3*
X17440Y5440D3*
Y6440D3*
X18440Y5440D3*
Y6440D3*
X19440Y5440D3*
Y6440D3*
X20440Y5440D3*
Y6440D3*
X21440Y5440D3*
Y6440D3*
X22440Y5440D3*
Y6440D3*
D32*
X5440Y20440D3*
X25440D3*
X5440Y5440D3*
X25440D3*
M02*
