G04 DipTrace 2.1.9.5*
%INTopSilk.gbr*%
%MOIN*%
%ADD10C,0.0098*%
%ADD18O,0.0164X0.0165*%
%ADD21C,0.0155*%
%ADD62C,0.0077*%
%ADD63C,0.0124*%
%FSLAX44Y44*%
%SFA1B1*%
%OFA0B0*%
G04*
G70*
G90*
G75*
G01*
%LNTopSilk*%
%LPD*%
X9720Y13627D2*
D10*
X10035D1*
Y10317D2*
X9720D1*
X13932Y13603D2*
Y13288D1*
X12381Y11737D2*
X12066D1*
X13920Y9702D2*
X16204D1*
Y11985D1*
X13920D1*
Y9702D1*
D18*
X13609Y9185D3*
G36*
X13920Y9702D2*
X14235D1*
X13920Y10017D1*
Y9702D1*
G37*
D21*
X9055Y14243D3*
X9109Y13752D2*
D10*
X9404D1*
X7475Y9264D2*
X7770D1*
X7475Y13752D2*
Y9264D1*
Y13752D2*
X7770D1*
X9109Y9264D2*
X9404D1*
Y13752D2*
Y9264D1*
X17689Y14690D2*
Y16315D1*
Y14690D2*
X12938D1*
Y16315D1*
Y18440D2*
Y21690D1*
X17689D2*
X12938D1*
X17689Y18440D2*
Y21690D1*
X7065Y17940D2*
X4565D1*
Y14440D1*
X7065D1*
Y17940D1*
X4565Y8940D2*
X6065D1*
Y13440D1*
X4565D1*
Y8940D1*
D21*
X21401Y9638D3*
X21391Y10531D2*
D10*
X23989D1*
X21391Y11712D2*
X23989D1*
Y10531D2*
Y11712D1*
X21391Y10531D2*
Y11712D1*
X21565Y16065D2*
X25065D1*
Y13565D1*
X21565D1*
Y16065D1*
X25320Y11653D2*
X24808D1*
X10851Y17821D2*
Y17309D1*
X10858Y19160D2*
Y18845D1*
X12295Y8411D2*
Y8096D1*
X12461Y9825D2*
Y9510D1*
X20440Y16065D2*
X18940D1*
Y13565D1*
X20440D1*
Y16065D1*
X23315Y20815D2*
X21815D1*
Y18315D1*
X23315D1*
Y20815D1*
X7691Y7190D2*
X23190D1*
Y4690D1*
X7691D1*
Y7190D1*
X9630Y14227D2*
D62*
X9582Y14203D1*
D2*
X9534Y14155D1*
D2*
X9510Y14107D1*
D2*
Y14012D1*
D2*
X9534Y13964D1*
D2*
X9582Y13916D1*
D2*
X9630Y13892D1*
D2*
X9702Y13868D1*
D2*
X9822D1*
D2*
X9893Y13892D1*
D2*
X9941Y13916D1*
D2*
X9988Y13964D1*
D2*
X10013Y14012D1*
D2*
Y14107D1*
D2*
X9988Y14155D1*
D2*
X9941Y14203D1*
D2*
X9893Y14227D1*
X9607Y14381D2*
X9582Y14429D1*
D2*
X9511Y14501D1*
D2*
X10013D1*
X9755Y9632D2*
X9707Y9608D1*
D2*
X9659Y9560D1*
D2*
X9635Y9513D1*
D2*
Y9417D1*
D2*
X9659Y9369D1*
D2*
X9707Y9321D1*
D2*
X9755Y9297D1*
D2*
X9827Y9273D1*
D2*
X9947D1*
D2*
X10018Y9297D1*
D2*
X10066Y9321D1*
D2*
X10113Y9369D1*
D2*
X10138Y9417D1*
D2*
Y9513D1*
D2*
X10113Y9560D1*
D2*
X10066Y9608D1*
D2*
X10018Y9632D1*
X9755Y9811D2*
X9732D1*
D2*
X9683Y9834D1*
D2*
X9660Y9858D1*
D2*
X9636Y9906D1*
D2*
Y10002D1*
D2*
X9660Y10049D1*
D2*
X9683Y10073D1*
D2*
X9732Y10097D1*
D2*
X9779D1*
D2*
X9827Y10073D1*
D2*
X9898Y10026D1*
D2*
X10138Y9786D1*
D2*
Y10121D1*
X13237Y14256D2*
X13213Y14303D1*
D2*
X13165Y14351D1*
D2*
X13118Y14375D1*
D2*
X13022D1*
D2*
X12974Y14351D1*
D2*
X12926Y14303D1*
D2*
X12902Y14256D1*
D2*
X12878Y14184D1*
D2*
Y14064D1*
D2*
X12902Y13993D1*
D2*
X12926Y13944D1*
D2*
X12974Y13897D1*
D2*
X13022Y13873D1*
D2*
X13118D1*
D2*
X13165Y13897D1*
D2*
X13213Y13944D1*
D2*
X13237Y13993D1*
X13439Y14374D2*
X13702D1*
D2*
X13559Y14183D1*
D2*
X13631D1*
D2*
X13678Y14159D1*
D2*
X13702Y14136D1*
D2*
X13726Y14064D1*
D2*
Y14016D1*
D2*
X13702Y13944D1*
D2*
X13654Y13896D1*
D2*
X13583Y13873D1*
D2*
X13511D1*
D2*
X13439Y13896D1*
D2*
X13416Y13921D1*
D2*
X13391Y13968D1*
X11414Y12290D2*
X11366Y12266D1*
D2*
X11318Y12218D1*
D2*
X11295Y12171D1*
D2*
Y12075D1*
D2*
X11318Y12027D1*
D2*
X11366Y11979D1*
D2*
X11414Y11955D1*
D2*
X11486Y11931D1*
D2*
X11606D1*
D2*
X11677Y11955D1*
D2*
X11725Y11979D1*
D2*
X11773Y12027D1*
D2*
X11797Y12075D1*
D2*
Y12171D1*
D2*
X11773Y12218D1*
D2*
X11725Y12266D1*
D2*
X11677Y12290D1*
X11797Y12684D2*
X11295D1*
D2*
X11629Y12444D1*
D2*
Y12803D1*
X7666Y15010D2*
Y15225D1*
D2*
X7641Y15297D1*
D2*
X7618Y15322D1*
D2*
X7570Y15345D1*
D2*
X7522D1*
D2*
X7474Y15322D1*
D2*
X7450Y15297D1*
D2*
X7426Y15225D1*
D2*
Y15010D1*
D2*
X7929D1*
X7666Y15178D2*
X7929Y15345D1*
X7522Y15500D2*
X7498Y15548D1*
D2*
X7427Y15620D1*
D2*
X7929D1*
X11813Y16050D2*
Y16265D1*
D2*
X11788Y16337D1*
D2*
X11765Y16361D1*
D2*
X11717Y16385D1*
D2*
X11669D1*
D2*
X11621Y16361D1*
D2*
X11597Y16337D1*
D2*
X11573Y16265D1*
D2*
Y16050D1*
D2*
X12076D1*
X11813Y16217D2*
X12076Y16385D1*
X11693Y16564D2*
X11670D1*
D2*
X11621Y16587D1*
D2*
X11598Y16611D1*
D2*
X11574Y16659D1*
D2*
Y16755D1*
D2*
X11598Y16802D1*
D2*
X11621Y16826D1*
D2*
X11670Y16851D1*
D2*
X11717D1*
D2*
X11765Y16826D1*
D2*
X11836Y16779D1*
D2*
X12076Y16539D1*
D2*
Y16874D1*
X11000Y16050D2*
Y16265D1*
D2*
X10976Y16337D1*
D2*
X10952Y16361D1*
D2*
X10905Y16385D1*
D2*
X10857D1*
D2*
X10809Y16361D1*
D2*
X10785Y16337D1*
D2*
X10761Y16265D1*
D2*
Y16050D1*
D2*
X11263D1*
X11000Y16217D2*
X11263Y16385D1*
X10761Y16587D2*
Y16850D1*
D2*
X10953Y16707D1*
D2*
Y16779D1*
D2*
X10976Y16826D1*
D2*
X11000Y16850D1*
D2*
X11072Y16874D1*
D2*
X11120D1*
D2*
X11191Y16850D1*
D2*
X11240Y16802D1*
D2*
X11263Y16731D1*
D2*
Y16659D1*
D2*
X11240Y16587D1*
D2*
X11215Y16564D1*
D2*
X11168Y16539D1*
X14738Y13564D2*
Y13205D1*
D2*
X14761Y13133D1*
D2*
X14810Y13086D1*
D2*
X14881Y13062D1*
D2*
X14929D1*
D2*
X15001Y13086D1*
D2*
X15049Y13133D1*
D2*
X15073Y13205D1*
D2*
Y13564D1*
X15227Y13468D2*
X15275Y13492D1*
D2*
X15347Y13563D1*
D2*
Y13062D1*
X7260Y14443D2*
X7595Y13941D1*
Y14443D2*
X7260Y13941D1*
X7749Y14347D2*
X7798Y14371D1*
D2*
X7869Y14443D1*
D2*
Y13941D1*
X18176Y15423D2*
Y15040D1*
D2*
X18152Y14968D1*
D2*
X18128Y14944D1*
D2*
X18081Y14920D1*
D2*
X18033D1*
D2*
X17985Y14944D1*
D2*
X17961Y14968D1*
D2*
X17937Y15040D1*
D2*
Y15088D1*
X18331Y15326D2*
X18379Y15351D1*
D2*
X18451Y15422D1*
D2*
Y14920D1*
X6344Y18797D2*
Y18415D1*
D2*
X6320Y18343D1*
D2*
X6295Y18319D1*
D2*
X6248Y18295D1*
D2*
X6200D1*
D2*
X6152Y18319D1*
D2*
X6129Y18343D1*
D2*
X6104Y18415D1*
D2*
Y18462D1*
X6522Y18677D2*
Y18701D1*
D2*
X6546Y18749D1*
D2*
X6570Y18773D1*
D2*
X6618Y18797D1*
D2*
X6713D1*
D2*
X6761Y18773D1*
D2*
X6785Y18749D1*
D2*
X6809Y18701D1*
D2*
Y18654D1*
D2*
X6785Y18605D1*
D2*
X6737Y18534D1*
D2*
X6498Y18295D1*
D2*
X6833D1*
X7625Y16431D2*
Y16646D1*
D2*
X7601Y16718D1*
D2*
X7577Y16743D1*
D2*
X7530Y16766D1*
D2*
X7482D1*
D2*
X7434Y16743D1*
D2*
X7410Y16718D1*
D2*
X7386Y16646D1*
D2*
Y16431D1*
D2*
X7888D1*
X7625Y16599D2*
X7888Y16766D1*
Y17160D2*
X7386D1*
D2*
X7721Y16921D1*
D2*
Y17279D1*
X5190Y14172D2*
Y13790D1*
D2*
X5166Y13718D1*
D2*
X5142Y13694D1*
D2*
X5094Y13670D1*
D2*
X5046D1*
D2*
X4999Y13694D1*
D2*
X4975Y13718D1*
D2*
X4951Y13790D1*
D2*
Y13837D1*
X5392Y14172D2*
X5655D1*
D2*
X5512Y13980D1*
D2*
X5584D1*
D2*
X5631Y13957D1*
D2*
X5655Y13933D1*
D2*
X5679Y13861D1*
D2*
Y13814D1*
D2*
X5655Y13742D1*
D2*
X5607Y13694D1*
D2*
X5536Y13670D1*
D2*
X5464D1*
D2*
X5392Y13694D1*
D2*
X5369Y13718D1*
D2*
X5344Y13765D1*
X6625Y13193D2*
Y13408D1*
D2*
X6601Y13480D1*
D2*
X6577Y13504D1*
D2*
X6530Y13528D1*
D2*
X6482D1*
D2*
X6434Y13504D1*
D2*
X6410Y13480D1*
D2*
X6386Y13408D1*
D2*
Y13193D1*
D2*
X6888D1*
X6625Y13361D2*
X6888Y13528D1*
X6386Y13969D2*
Y13731D1*
D2*
X6601Y13707D1*
D2*
X6578Y13731D1*
D2*
X6553Y13802D1*
D2*
Y13874D1*
D2*
X6578Y13946D1*
D2*
X6625Y13994D1*
D2*
X6697Y14017D1*
D2*
X6745D1*
D2*
X6816Y13994D1*
D2*
X6865Y13946D1*
D2*
X6888Y13874D1*
D2*
Y13802D1*
D2*
X6865Y13731D1*
D2*
X6840Y13707D1*
D2*
X6793Y13683D1*
X6625Y8830D2*
Y9045D1*
D2*
X6601Y9117D1*
D2*
X6577Y9142D1*
D2*
X6530Y9165D1*
D2*
X6482D1*
D2*
X6434Y9142D1*
D2*
X6410Y9117D1*
D2*
X6386Y9045D1*
D2*
Y8830D1*
D2*
X6888D1*
X6625Y8998D2*
X6888Y9165D1*
X6458Y9607D2*
X6410Y9583D1*
D2*
X6386Y9511D1*
D2*
Y9463D1*
D2*
X6410Y9392D1*
D2*
X6482Y9343D1*
D2*
X6601Y9320D1*
D2*
X6721D1*
D2*
X6816Y9343D1*
D2*
X6865Y9392D1*
D2*
X6888Y9463D1*
D2*
Y9487D1*
D2*
X6865Y9558D1*
D2*
X6816Y9607D1*
D2*
X6745Y9630D1*
D2*
X6721D1*
D2*
X6649Y9607D1*
D2*
X6601Y9558D1*
D2*
X6578Y9487D1*
D2*
Y9463D1*
D2*
X6601Y9392D1*
D2*
X6649Y9343D1*
D2*
X6721Y9320D1*
X22245Y13428D2*
Y13069D1*
D2*
X22268Y12998D1*
D2*
X22316Y12950D1*
D2*
X22388Y12926D1*
D2*
X22436D1*
D2*
X22508Y12950D1*
D2*
X22556Y12998D1*
D2*
X22579Y13069D1*
D2*
Y13428D1*
X22758Y13308D2*
Y13332D1*
D2*
X22782Y13380D1*
D2*
X22806Y13404D1*
D2*
X22854Y13428D1*
D2*
X22949D1*
D2*
X22997Y13404D1*
D2*
X23021Y13380D1*
D2*
X23045Y13332D1*
D2*
Y13284D1*
D2*
X23021Y13236D1*
D2*
X22973Y13165D1*
D2*
X22734Y12926D1*
D2*
X23069D1*
X21363Y8255D2*
X21578D1*
D2*
X21649Y8279D1*
D2*
X21674Y8303D1*
D2*
X21697Y8350D1*
D2*
Y8398D1*
D2*
X21674Y8446D1*
D2*
X21649Y8470D1*
D2*
X21578Y8494D1*
D2*
X21363D1*
D2*
Y7992D1*
X21530Y8255D2*
X21697Y7992D1*
X21947D2*
X22187Y8494D1*
D2*
X21852D1*
X20125Y10694D2*
Y10909D1*
D2*
X20101Y10980D1*
D2*
X20077Y11005D1*
D2*
X20030Y11028D1*
D2*
X19982D1*
D2*
X19934Y11005D1*
D2*
X19910Y10980D1*
D2*
X19886Y10909D1*
D2*
Y10694D1*
D2*
X20388D1*
X20125Y10861D2*
X20388Y11028D1*
X19886Y11302D2*
X19910Y11231D1*
D2*
X19958Y11207D1*
D2*
X20006D1*
D2*
X20053Y11231D1*
D2*
X20078Y11278D1*
D2*
X20101Y11374D1*
D2*
X20125Y11446D1*
D2*
X20173Y11493D1*
D2*
X20221Y11517D1*
D2*
X20293D1*
D2*
X20340Y11493D1*
D2*
X20365Y11470D1*
D2*
X20388Y11398D1*
D2*
Y11302D1*
D2*
X20365Y11231D1*
D2*
X20340Y11207D1*
D2*
X20293Y11183D1*
D2*
X20221D1*
D2*
X20173Y11207D1*
D2*
X20125Y11255D1*
D2*
X20101Y11326D1*
D2*
X20078Y11422D1*
D2*
X20053Y11470D1*
D2*
X20006Y11493D1*
D2*
X19958D1*
D2*
X19910Y11470D1*
D2*
X19886Y11398D1*
D2*
Y11302D1*
X22955Y8380D2*
X23170D1*
D2*
X23242Y8404D1*
D2*
X23266Y8428D1*
D2*
X23290Y8475D1*
D2*
Y8523D1*
D2*
X23266Y8571D1*
D2*
X23242Y8595D1*
D2*
X23170Y8619D1*
D2*
X22955D1*
D2*
Y8117D1*
X23123Y8380D2*
X23290Y8117D1*
X23756Y8452D2*
X23731Y8380D1*
D2*
X23684Y8332D1*
D2*
X23612Y8308D1*
D2*
X23588D1*
D2*
X23516Y8332D1*
D2*
X23469Y8380D1*
D2*
X23444Y8452D1*
D2*
Y8475D1*
D2*
X23469Y8547D1*
D2*
X23516Y8595D1*
D2*
X23588Y8619D1*
D2*
X23612D1*
D2*
X23684Y8595D1*
D2*
X23731Y8547D1*
D2*
X23756Y8452D1*
D2*
Y8332D1*
D2*
X23731Y8212D1*
D2*
X23684Y8140D1*
D2*
X23612Y8117D1*
D2*
X23564D1*
D2*
X23493Y8140D1*
D2*
X23469Y8189D1*
X24416Y8516D2*
Y8731D1*
D2*
X24391Y8803D1*
D2*
X24368Y8827D1*
D2*
X24320Y8851D1*
D2*
X24272D1*
D2*
X24224Y8827D1*
D2*
X24200Y8803D1*
D2*
X24176Y8731D1*
D2*
Y8516D1*
D2*
X24679D1*
X24416Y8683D2*
X24679Y8851D1*
X24272Y9005D2*
X24248Y9053D1*
D2*
X24177Y9125D1*
D2*
X24679D1*
X24177Y9423D2*
X24201Y9351D1*
D2*
X24272Y9303D1*
D2*
X24392Y9279D1*
D2*
X24464D1*
D2*
X24583Y9303D1*
D2*
X24655Y9351D1*
D2*
X24679Y9423D1*
D2*
Y9471D1*
D2*
X24655Y9542D1*
D2*
X24583Y9590D1*
D2*
X24464Y9614D1*
D2*
X24392D1*
D2*
X24272Y9590D1*
D2*
X24201Y9542D1*
D2*
X24177Y9471D1*
D2*
Y9423D1*
X24272Y9590D2*
X24583Y9303D1*
X24416Y10248D2*
Y10463D1*
D2*
X24391Y10535D1*
D2*
X24368Y10559D1*
D2*
X24320Y10583D1*
D2*
X24272D1*
D2*
X24224Y10559D1*
D2*
X24200Y10535D1*
D2*
X24176Y10463D1*
D2*
Y10248D1*
D2*
X24679D1*
X24416Y10416D2*
X24679Y10583D1*
X24272Y10738D2*
X24248Y10786D1*
D2*
X24177Y10857D1*
D2*
X24679D1*
X24272Y11012D2*
X24248Y11060D1*
D2*
X24177Y11132D1*
D2*
X24679D1*
X22803Y16797D2*
Y16415D1*
D2*
X22779Y16343D1*
D2*
X22755Y16319D1*
D2*
X22707Y16295D1*
D2*
X22659D1*
D2*
X22612Y16319D1*
D2*
X22588Y16343D1*
D2*
X22564Y16415D1*
D2*
Y16462D1*
X23197Y16295D2*
Y16797D1*
D2*
X22958Y16462D1*
D2*
X23316D1*
X24156Y12296D2*
X24108Y12272D1*
D2*
X24060Y12224D1*
D2*
X24036Y12177D1*
D2*
Y12081D1*
D2*
X24060Y12033D1*
D2*
X24108Y11985D1*
D2*
X24156Y11961D1*
D2*
X24228Y11937D1*
D2*
X24348D1*
D2*
X24419Y11961D1*
D2*
X24467Y11985D1*
D2*
X24515Y12033D1*
D2*
X24539Y12081D1*
D2*
Y12177D1*
D2*
X24515Y12224D1*
D2*
X24467Y12272D1*
D2*
X24419Y12296D1*
X24037Y12737D2*
Y12498D1*
D2*
X24252Y12475D1*
D2*
X24228Y12498D1*
D2*
X24204Y12570D1*
D2*
Y12642D1*
D2*
X24228Y12713D1*
D2*
X24276Y12761D1*
D2*
X24348Y12785D1*
D2*
X24395D1*
D2*
X24467Y12761D1*
D2*
X24515Y12713D1*
D2*
X24539Y12642D1*
D2*
Y12570D1*
D2*
X24515Y12498D1*
D2*
X24491Y12475D1*
D2*
X24443Y12450D1*
X10090Y18473D2*
X10066Y18521D1*
D2*
X10018Y18569D1*
D2*
X9970Y18593D1*
D2*
X9875D1*
D2*
X9826Y18569D1*
D2*
X9779Y18521D1*
D2*
X9755Y18473D1*
D2*
X9731Y18401D1*
D2*
Y18281D1*
D2*
X9755Y18210D1*
D2*
X9779Y18162D1*
D2*
X9826Y18114D1*
D2*
X9875Y18090D1*
D2*
X9970D1*
D2*
X10018Y18114D1*
D2*
X10066Y18162D1*
D2*
X10090Y18210D1*
X10531Y18521D2*
X10507Y18568D1*
D2*
X10435Y18592D1*
D2*
X10388D1*
D2*
X10316Y18568D1*
D2*
X10268Y18496D1*
D2*
X10244Y18377D1*
D2*
Y18258D1*
D2*
X10268Y18162D1*
D2*
X10316Y18114D1*
D2*
X10388Y18090D1*
D2*
X10411D1*
D2*
X10483Y18114D1*
D2*
X10531Y18162D1*
D2*
X10555Y18234D1*
D2*
Y18258D1*
D2*
X10531Y18329D1*
D2*
X10483Y18377D1*
D2*
X10411Y18401D1*
D2*
X10388D1*
D2*
X10316Y18377D1*
D2*
X10268Y18329D1*
D2*
X10244Y18258D1*
X10163Y19812D2*
X10139Y19860D1*
D2*
X10091Y19908D1*
D2*
X10044Y19932D1*
D2*
X9948D1*
D2*
X9900Y19908D1*
D2*
X9853Y19860D1*
D2*
X9828Y19812D1*
D2*
X9804Y19740D1*
D2*
Y19620D1*
D2*
X9828Y19549D1*
D2*
X9853Y19501D1*
D2*
X9900Y19454D1*
D2*
X9948Y19429D1*
D2*
X10044D1*
D2*
X10091Y19454D1*
D2*
X10139Y19501D1*
D2*
X10163Y19549D1*
X10413Y19429D2*
X10652Y19931D1*
D2*
X10318D1*
X11663Y7813D2*
X11639Y7861D1*
D2*
X11591Y7909D1*
D2*
X11543Y7933D1*
D2*
X11448D1*
D2*
X11400Y7909D1*
D2*
X11352Y7861D1*
D2*
X11328Y7813D1*
D2*
X11304Y7741D1*
D2*
Y7622D1*
D2*
X11328Y7550D1*
D2*
X11352Y7502D1*
D2*
X11400Y7455D1*
D2*
X11448Y7430D1*
D2*
X11543D1*
D2*
X11591Y7455D1*
D2*
X11639Y7502D1*
D2*
X11663Y7550D1*
X11937Y7932D2*
X11865Y7908D1*
D2*
X11841Y7861D1*
D2*
Y7813D1*
D2*
X11865Y7765D1*
D2*
X11913Y7741D1*
D2*
X12008Y7717D1*
D2*
X12080Y7693D1*
D2*
X12128Y7645D1*
D2*
X12152Y7598D1*
D2*
Y7526D1*
D2*
X12128Y7478D1*
D2*
X12104Y7454D1*
D2*
X12032Y7430D1*
D2*
X11937D1*
D2*
X11865Y7454D1*
D2*
X11841Y7478D1*
D2*
X11817Y7526D1*
D2*
Y7598D1*
D2*
X11841Y7645D1*
D2*
X11889Y7693D1*
D2*
X11960Y7717D1*
D2*
X12056Y7741D1*
D2*
X12104Y7765D1*
D2*
X12128Y7813D1*
D2*
Y7861D1*
D2*
X12104Y7908D1*
D2*
X12032Y7932D1*
D2*
X11937D1*
X11778Y10477D2*
X11754Y10525D1*
D2*
X11706Y10573D1*
D2*
X11658Y10597D1*
D2*
X11563D1*
D2*
X11515Y10573D1*
D2*
X11467Y10525D1*
D2*
X11443Y10477D1*
D2*
X11419Y10406D1*
D2*
Y10286D1*
D2*
X11443Y10214D1*
D2*
X11467Y10166D1*
D2*
X11515Y10119D1*
D2*
X11563Y10094D1*
D2*
X11658D1*
D2*
X11706Y10119D1*
D2*
X11754Y10166D1*
D2*
X11778Y10214D1*
X12243Y10429D2*
X12219Y10358D1*
D2*
X12171Y10309D1*
D2*
X12100Y10286D1*
D2*
X12076D1*
D2*
X12004Y10309D1*
D2*
X11956Y10358D1*
D2*
X11932Y10429D1*
D2*
Y10453D1*
D2*
X11956Y10525D1*
D2*
X12004Y10573D1*
D2*
X12076Y10596D1*
D2*
X12100D1*
D2*
X12171Y10573D1*
D2*
X12219Y10525D1*
D2*
X12243Y10429D1*
D2*
Y10309D1*
D2*
X12219Y10190D1*
D2*
X12171Y10118D1*
D2*
X12100Y10094D1*
D2*
X12052D1*
D2*
X11980Y10118D1*
D2*
X11956Y10166D1*
X19565Y16797D2*
Y16415D1*
D2*
X19541Y16343D1*
D2*
X19517Y16319D1*
D2*
X19469Y16295D1*
D2*
X19421D1*
D2*
X19374Y16319D1*
D2*
X19350Y16343D1*
D2*
X19326Y16415D1*
D2*
Y16462D1*
X20006Y16797D2*
X19767D1*
D2*
X19744Y16582D1*
D2*
X19767Y16605D1*
D2*
X19839Y16630D1*
D2*
X19911D1*
D2*
X19982Y16605D1*
D2*
X20031Y16558D1*
D2*
X20054Y16486D1*
D2*
Y16439D1*
D2*
X20031Y16367D1*
D2*
X19982Y16319D1*
D2*
X19911Y16295D1*
D2*
X19839D1*
D2*
X19767Y16319D1*
D2*
X19744Y16343D1*
D2*
X19719Y16390D1*
X20260Y21218D2*
Y20716D1*
D2*
X20428D1*
D2*
X20500Y20740D1*
D2*
X20548Y20788D1*
D2*
X20572Y20836D1*
D2*
X20595Y20907D1*
D2*
Y21027D1*
D2*
X20572Y21099D1*
D2*
X20548Y21147D1*
D2*
X20500Y21195D1*
D2*
X20428Y21218D1*
D2*
X20260D1*
X20750Y21122D2*
X20798Y21147D1*
D2*
X20870Y21218D1*
D2*
Y20716D1*
X20016Y19464D2*
X20231D1*
D2*
X20303Y19489D1*
D2*
X20327Y19512D1*
D2*
X20351Y19560D1*
D2*
Y19608D1*
D2*
X20327Y19656D1*
D2*
X20303Y19680D1*
D2*
X20231Y19704D1*
D2*
X20016D1*
D2*
Y19201D1*
X20183Y19464D2*
X20351Y19201D1*
X20505Y19608D2*
X20553Y19632D1*
D2*
X20625Y19703D1*
D2*
Y19201D1*
X20804Y19584D2*
Y19608D1*
D2*
X20827Y19656D1*
D2*
X20851Y19679D1*
D2*
X20899Y19703D1*
D2*
X20995D1*
D2*
X21042Y19679D1*
D2*
X21066Y19656D1*
D2*
X21091Y19608D1*
D2*
Y19560D1*
D2*
X21066Y19512D1*
D2*
X21019Y19441D1*
D2*
X20779Y19201D1*
D2*
X21114D1*
X22452Y21547D2*
Y21165D1*
D2*
X22428Y21093D1*
D2*
X22404Y21069D1*
D2*
X22357Y21045D1*
D2*
X22308D1*
D2*
X22261Y21069D1*
D2*
X22237Y21093D1*
D2*
X22213Y21165D1*
D2*
Y21212D1*
X22893Y21475D2*
X22870Y21523D1*
D2*
X22798Y21547D1*
D2*
X22750D1*
D2*
X22678Y21523D1*
D2*
X22630Y21451D1*
D2*
X22607Y21332D1*
D2*
Y21212D1*
D2*
X22630Y21117D1*
D2*
X22678Y21069D1*
D2*
X22750Y21045D1*
D2*
X22774D1*
D2*
X22845Y21069D1*
D2*
X22893Y21117D1*
D2*
X22917Y21189D1*
D2*
Y21212D1*
D2*
X22893Y21284D1*
D2*
X22845Y21332D1*
D2*
X22774Y21355D1*
D2*
X22750D1*
D2*
X22678Y21332D1*
D2*
X22630Y21284D1*
D2*
X22607Y21212D1*
X14940Y7922D2*
Y7540D1*
D2*
X14916Y7468D1*
D2*
X14892Y7444D1*
D2*
X14844Y7420D1*
D2*
X14796D1*
D2*
X14749Y7444D1*
D2*
X14725Y7468D1*
D2*
X14701Y7540D1*
D2*
Y7587D1*
X15190Y7420D2*
X15429Y7922D1*
D2*
X15094D1*
X25781Y6882D2*
D63*
X26317Y7035D1*
D2*
X25781Y7188D1*
D2*
X26317Y7341D1*
D2*
X25781Y7494D1*
Y7741D2*
X26317Y7894D1*
D2*
X25781Y8047D1*
D2*
X26317Y8200D1*
D2*
X25781Y8353D1*
Y8600D2*
X26317Y8753D1*
D2*
X25781Y8906D1*
D2*
X26317Y9059D1*
D2*
X25781Y9212D1*
X26240Y9497D2*
X26279Y9459D1*
D2*
X26317Y9497D1*
D2*
X26279Y9536D1*
D2*
X26240Y9497D1*
X25513Y9783D2*
X26317D1*
X25934D2*
X25819Y9898D1*
D2*
X25781Y9975D1*
D2*
Y10090D1*
D2*
X25819Y10166D1*
D2*
X25934Y10204D1*
D2*
X26317D1*
X26011Y10451D2*
Y10910D1*
D2*
X25934D1*
D2*
X25857Y10872D1*
D2*
X25819Y10834D1*
D2*
X25781Y10757D1*
D2*
Y10642D1*
D2*
X25819Y10566D1*
D2*
X25896Y10489D1*
D2*
X26011Y10451D1*
D2*
X26087D1*
D2*
X26202Y10489D1*
D2*
X26278Y10566D1*
D2*
X26317Y10642D1*
D2*
Y10757D1*
D2*
X26278Y10834D1*
D2*
X26202Y10910D1*
X25513Y11157D2*
X26317D1*
X25513Y11404D2*
X25551Y11442D1*
D2*
X25513Y11481D1*
D2*
X25474Y11442D1*
D2*
X25513Y11404D1*
X25781Y11442D2*
X26317D1*
X25781Y11919D2*
X25819Y11843D1*
D2*
X25896Y11766D1*
D2*
X26011Y11728D1*
D2*
X26087D1*
D2*
X26202Y11766D1*
D2*
X26278Y11843D1*
D2*
X26317Y11919D1*
D2*
Y12034D1*
D2*
X26278Y12111D1*
D2*
X26202Y12187D1*
D2*
X26087Y12226D1*
D2*
X26011D1*
D2*
X25896Y12187D1*
D2*
X25819Y12111D1*
D2*
X25781Y12034D1*
D2*
Y11919D1*
Y12473D2*
X26317D1*
X25934D2*
X25819Y12588D1*
D2*
X25781Y12665D1*
D2*
Y12779D1*
D2*
X25819Y12856D1*
D2*
X25934Y12894D1*
D2*
X26317D1*
X25781Y13141D2*
X26317D1*
X25934D2*
X25819Y13256D1*
D2*
X25781Y13333D1*
D2*
Y13447D1*
D2*
X25819Y13524D1*
D2*
X25934Y13562D1*
D2*
X26317D1*
X25934D2*
X25819Y13677D1*
D2*
X25781Y13754D1*
D2*
Y13868D1*
D2*
X25819Y13945D1*
D2*
X25934Y13983D1*
D2*
X26317D1*
X25513Y14230D2*
X25551Y14269D1*
D2*
X25513Y14307D1*
D2*
X25474Y14269D1*
D2*
X25513Y14230D1*
X25781Y14269D2*
X26317D1*
X25896Y15014D2*
X25819Y14937D1*
D2*
X25781Y14860D1*
D2*
Y14746D1*
D2*
X25819Y14669D1*
D2*
X25896Y14593D1*
D2*
X26011Y14554D1*
D2*
X26087D1*
D2*
X26202Y14593D1*
D2*
X26278Y14669D1*
D2*
X26317Y14746D1*
D2*
Y14860D1*
D2*
X26278Y14937D1*
D2*
X26202Y15014D1*
X25781Y15261D2*
X26317D1*
X26011D2*
X25896Y15300D1*
D2*
X25819Y15376D1*
D2*
X25781Y15453D1*
D2*
Y15568D1*
Y16006D2*
X25819Y15930D1*
D2*
X25896Y15853D1*
D2*
X26011Y15815D1*
D2*
X26087D1*
D2*
X26202Y15853D1*
D2*
X26278Y15930D1*
D2*
X26317Y16006D1*
D2*
Y16121D1*
D2*
X26278Y16198D1*
D2*
X26202Y16274D1*
D2*
X26087Y16313D1*
D2*
X26011D1*
D2*
X25896Y16274D1*
D2*
X25819Y16198D1*
D2*
X25781Y16121D1*
D2*
Y16006D1*
X26240Y16598D2*
X26279Y16560D1*
D2*
X26317Y16598D1*
D2*
X26279Y16637D1*
D2*
X26240Y16598D1*
X25896Y17344D2*
X25819Y17267D1*
D2*
X25781Y17190D1*
D2*
Y17076D1*
D2*
X25819Y16999D1*
D2*
X25896Y16923D1*
D2*
X26011Y16884D1*
D2*
X26087D1*
D2*
X26202Y16923D1*
D2*
X26278Y16999D1*
D2*
X26317Y17076D1*
D2*
Y17190D1*
D2*
X26278Y17267D1*
D2*
X26202Y17344D1*
X25781Y17782D2*
X25819Y17706D1*
D2*
X25896Y17629D1*
D2*
X26011Y17591D1*
D2*
X26087D1*
D2*
X26202Y17629D1*
D2*
X26278Y17706D1*
D2*
X26317Y17782D1*
D2*
Y17897D1*
D2*
X26278Y17974D1*
D2*
X26202Y18050D1*
D2*
X26087Y18089D1*
D2*
X26011D1*
D2*
X25896Y18050D1*
D2*
X25819Y17974D1*
D2*
X25781Y17897D1*
D2*
Y17782D1*
Y18336D2*
X26317D1*
X25934D2*
X25819Y18451D1*
D2*
X25781Y18528D1*
D2*
Y18642D1*
D2*
X25819Y18719D1*
D2*
X25934Y18757D1*
D2*
X26317D1*
X25934D2*
X25819Y18872D1*
D2*
X25781Y18949D1*
D2*
Y19063D1*
D2*
X25819Y19140D1*
D2*
X25934Y19179D1*
D2*
X26317D1*
X7628Y20918D2*
Y20114D1*
X8163Y20918D2*
Y20114D1*
X7628Y20535D2*
X8163D1*
X8410Y20918D2*
Y20344D1*
D2*
X8448Y20229D1*
D2*
X8525Y20153D1*
D2*
X8640Y20114D1*
D2*
X8716D1*
D2*
X8831Y20153D1*
D2*
X8908Y20229D1*
D2*
X8946Y20344D1*
D2*
Y20918D1*
X9193Y20516D2*
X9636D1*
X9959Y20917D2*
X10380D1*
D2*
X10150Y20611D1*
D2*
X10265D1*
D2*
X10341Y20573D1*
D2*
X10380Y20535D1*
D2*
X10418Y20420D1*
D2*
Y20344D1*
D2*
X10380Y20229D1*
D2*
X10303Y20152D1*
D2*
X10189Y20114D1*
D2*
X10074D1*
D2*
X9959Y20152D1*
D2*
X9921Y20191D1*
D2*
X9883Y20267D1*
X10704Y20726D2*
Y20764D1*
D2*
X10742Y20841D1*
D2*
X10780Y20879D1*
D2*
X10857Y20917D1*
D2*
X11010D1*
D2*
X11086Y20879D1*
D2*
X11124Y20841D1*
D2*
X11163Y20764D1*
D2*
Y20688D1*
D2*
X11124Y20611D1*
D2*
X11048Y20497D1*
D2*
X10665Y20114D1*
D2*
X11201D1*
X11678Y20917D2*
X11563Y20879D1*
D2*
X11486Y20764D1*
D2*
X11448Y20573D1*
D2*
Y20458D1*
D2*
X11486Y20267D1*
D2*
X11563Y20152D1*
D2*
X11678Y20114D1*
D2*
X11754D1*
D2*
X11869Y20152D1*
D2*
X11945Y20267D1*
D2*
X11984Y20458D1*
D2*
Y20573D1*
D2*
X11945Y20764D1*
D2*
X11869Y20879D1*
D2*
X11754Y20917D1*
D2*
X11678D1*
X11945Y20764D2*
X11486Y20267D1*
X5390Y18628D2*
X5429Y18551D1*
D2*
X5543Y18436D1*
D2*
X4740D1*
X20877Y14390D2*
X20954Y14429D1*
D2*
X21069Y14543D1*
D2*
Y13740D1*
X7002Y5515D2*
X7079Y5554D1*
D2*
X7194Y5668D1*
D2*
Y4865D1*
M02*
